<?xml version="1.0" encoding="UTF-8"?>
<svg version="1.1" xmlns="http://www.w3.org/2000/svg" width="500" height="500">
<path d="M0 0 C165 0 330 0 500 0 C500 165 500 330 500 500 C335 500 170 500 0 500 C0 335 0 170 0 0 Z " fill="#1DABBE" transform="translate(0,0)"/>
<path d="M0 0 C165 0 330 0 500 0 C500 165 500 330 500 500 C335 500 170 500 0 500 C0 335 0 170 0 0 Z M199 25 C199.79946961 29.52791395 201.4576891 33.22690568 203.5 37.3125 C222.55990427 76.82968767 232.81722104 121.1913344 234 165 C234.02723145 165.82661133 234.05446289 166.65322266 234.08251953 167.50488281 C234.85453359 193.63683036 231.69213791 219.5249521 226 245 C225.66959717 246.50071045 225.66959717 246.50071045 225.33251953 248.03173828 C216.277738 288.4790594 199.53161103 326.89333045 176 361 C175.53964355 361.6712793 175.07928711 362.34255859 174.60498047 363.03417969 C167.14655271 373.85836355 158.96395622 383.96346366 150.10546875 393.67578125 C148.26022445 395.71273925 146.4691833 397.78270847 144.6875 399.875 C141.49685276 403.53972926 138.11354893 406.99467913 134.6875 410.4375 C134.15922607 410.97036621 133.63095215 411.50323242 133.08666992 412.05224609 C129.24684067 415.87657966 129.24684067 415.87657966 127 417 C127 417.66 127 418.32 127 419 C126.14921875 419.36931641 126.14921875 419.36931641 125.28125 419.74609375 C122.61366839 421.21235008 120.71242537 422.97175802 118.5 425.0625 C97.68250785 444.04226853 72.29161582 458.8137302 47 471 C47 471.66 47 472.32 47 473 C51.42423535 474.69086633 55.08199437 475.25161843 59.80836582 475.25726891 C60.47154824 475.26077498 61.13473067 475.26428105 61.81800953 475.26789337 C64.03806404 475.27718996 66.25785523 475.27228863 68.47792053 475.26742554 C70.08663297 475.2711627 71.6953436 475.27576449 73.30405134 475.28115618 C77.72343345 475.29339388 82.14273991 475.29312479 86.5621351 475.29076743 C91.32920587 475.29035945 96.09625232 475.3013968 100.86331177 475.31088257 C110.20348125 475.32749886 119.54362548 475.33299244 128.8838085 475.33410732 C136.47795177 475.33505771 144.07208671 475.33916752 151.66622734 475.34550858 C173.20190266 475.36312438 194.73755805 475.37234717 216.27324063 475.37084763 C217.43434808 475.37076772 218.59545553 475.3706878 219.79174805 475.37060547 C220.95427538 475.37052371 222.11680271 475.37044195 223.31455814 475.37035771 C242.14565358 475.36954519 260.97666895 475.38867324 279.80774123 475.4168822 C299.1481619 475.4456252 318.48854354 475.45942165 337.82898611 475.45769465 C348.68512345 475.45703113 359.54117691 475.46250637 370.397295 475.48405075 C379.64288377 475.50228137 388.88835066 475.50659458 398.13394964 475.4930319 C402.84848253 475.48651116 407.56278173 475.48635261 412.27729225 475.5037384 C416.59984692 475.51951427 420.92198348 475.51655966 425.24452823 475.49917014 C426.8017723 475.49611009 428.35904793 475.49969482 429.91625477 475.51089029 C441.79674244 475.59059389 453.80772125 474.62424554 463.2890625 466.703125 C469.95979538 460.06285208 474.7340166 452.46247304 475.1276505 442.89853615 C475.12952025 441.13860685 475.12952025 441.13860685 475.13142776 439.34312344 C475.1334804 438.68417201 475.13553303 438.02522058 475.13764787 437.34630093 C475.14330953 435.13469266 475.14186165 432.92314683 475.14044189 430.71153259 C475.14302602 429.11122156 475.14603931 427.51091117 475.1494453 425.91060168 C475.15751317 421.50985034 475.15930475 417.10911531 475.16004276 412.70835745 C475.16189371 407.9631091 475.16944132 403.2178692 475.17617798 398.47262573 C475.18976088 388.09434906 475.19578611 377.71607624 475.20018864 367.33779216 C475.20295144 360.8565524 475.2071889 354.37531414 475.21169281 347.89407539 C475.22388601 329.9471124 475.23418484 312.0001506 475.2375679 294.05318356 C475.23778747 292.90447713 475.23800703 291.7557707 475.23823325 290.57225499 C475.23845153 289.42080623 475.23866981 288.26935748 475.2388947 287.08301634 C475.23933817 284.74976154 475.23978473 282.41650675 475.24023438 280.08325195 C475.2404558 278.92587804 475.24067723 277.76850413 475.24090537 276.57605828 C475.2448522 257.82830498 475.26230249 239.08059057 475.2855939 220.3328523 C475.30931744 201.08174325 475.32177023 181.83065372 475.32293582 162.57952982 C475.32385208 151.77204779 475.32959194 140.96461642 475.34775543 130.15714836 C475.36317002 120.95288087 475.3682689 111.7486797 475.36001733 102.54440176 C475.35611549 97.85028774 475.35701761 93.15630722 475.37107468 88.4622097 C475.38384161 84.15947011 475.38259164 79.85696395 475.37048396 75.55422456 C475.36853178 74.00302452 475.37158314 72.45180779 475.38032833 70.90063118 C475.45359554 57.01870284 474.28222332 44.69050193 464.3359375 34.25390625 C455.76903897 26.41069549 447.2922584 24.84506034 436.02165222 24.87974548 C435.00874266 24.87889106 433.99583311 24.87803663 432.95222932 24.87715632 C429.55431659 24.87550772 426.15645311 24.8810128 422.75854492 24.88647461 C420.32434083 24.88675664 417.89013666 24.88659844 415.45593262 24.8860321 C410.21326915 24.8858043 404.97061684 24.88864284 399.72795677 24.89426994 C392.14797085 24.90240047 384.56799095 24.90500176 376.98800115 24.90625793 C364.68966988 24.90844601 352.39134524 24.91509948 340.09301758 24.92456055 C328.14705437 24.93374098 316.20109297 24.94081873 304.25512695 24.94506836 C303.15041552 24.94546244 303.15041552 24.94546244 302.02338668 24.94586449 C298.32867426 24.94716954 294.63396183 24.94843324 290.9392494 24.94967639 C260.29282818 24.9600414 229.64641501 24.97772747 199 25 Z " fill="#1AB5BB" transform="translate(0,0)"/>
<path d="M0 0 C165 0 330 0 500 0 C500 165 500 330 500 500 C335 500 170 500 0 500 C0 335 0 170 0 0 Z M31.1875 39.375 C24.29926556 48.11209546 24.56809194 57.25539012 24.61231995 67.84577942 C24.6081445 69.47001933 24.60266583 71.09425632 24.59600013 72.71848792 C24.58155422 77.17145479 24.5857876 81.62423643 24.59316695 86.07721341 C24.59789847 90.88375338 24.58538883 95.69025328 24.57514954 100.4967804 C24.55795538 109.90954632 24.55712288 119.32224551 24.56236244 128.73502306 C24.56640455 136.38682389 24.56496009 144.038605 24.55961418 151.69040489 C24.55886576 152.77963735 24.55811734 153.86886981 24.55734624 154.99110931 C24.55581475 157.203932 24.5542764 159.41675468 24.55273127 161.62957736 C24.53900376 182.38052726 24.54444547 203.13143946 24.55591648 223.88238849 C24.56584709 242.86020787 24.55291158 261.83792973 24.52898229 280.81573407 C24.50459019 300.3076345 24.49498382 319.79948951 24.50163502 339.2914049 C24.50512724 350.23239807 24.50289499 361.17331625 24.48538399 372.11429787 C24.47066057 381.42907139 24.47002835 390.74371714 24.4874549 400.05848817 C24.49596644 404.80923665 24.49811065 409.55975689 24.48280334 414.31049347 C24.46895079 418.66371075 24.47372669 423.01650437 24.49304258 427.36969718 C24.49680118 428.94030163 24.49388464 430.51094006 24.48343093 432.08151422 C24.40579826 444.64333705 26.05518712 455.57895866 35 465 C45.04611422 474.33162765 55.75254956 475.59049363 68.9589386 475.50793457 C70.57110681 475.51254893 72.1832708 475.51890544 73.79542607 475.52684355 C78.20586551 475.54348707 82.61595716 475.5353132 87.02639759 475.52289867 C91.79068304 475.51382984 96.55490967 475.52782715 101.31918335 475.53881836 C110.64547334 475.55658983 119.97163444 475.55276934 129.29792944 475.5411678 C136.88054247 475.53212673 144.46311944 475.5309124 152.04573631 475.53526306 C153.12579426 475.53587599 154.20585221 475.53648893 155.31863919 475.53712043 C157.51293635 475.53839937 159.7072335 475.53969622 161.90153065 475.5410108 C182.47086857 475.552413 203.04013516 475.53930937 223.60946139 475.51780933 C241.24480363 475.49994631 258.88004053 475.50303662 276.51538086 475.52148438 C297.00749403 475.54291056 317.49954464 475.55130639 337.99166745 475.53903532 C340.17871709 475.53776117 342.36576673 475.53650368 344.55281639 475.53526306 C345.62880437 475.53464596 346.70479235 475.53402886 347.81338603 475.53339306 C355.38212468 475.52994483 362.95082355 475.53575728 370.51955605 475.54518127 C379.750422 475.55642239 388.98115197 475.55331715 398.21200243 475.5320583 C402.9184528 475.52157514 407.62467678 475.51737915 412.33112526 475.53065491 C416.64613381 475.54264197 420.96070779 475.53591306 425.27567735 475.5147447 C426.83010387 475.51030513 428.38456769 475.51248481 429.93896989 475.52224785 C441.80900822 475.59103739 453.81705538 474.6164474 463.2890625 466.703125 C469.95979538 460.06285208 474.7340166 452.46247304 475.1276505 442.89853615 C475.12952025 441.13860685 475.12952025 441.13860685 475.13142776 439.34312344 C475.1334804 438.68417201 475.13553303 438.02522058 475.13764787 437.34630093 C475.14330953 435.13469266 475.14186165 432.92314683 475.14044189 430.71153259 C475.14302602 429.11122156 475.14603931 427.51091117 475.1494453 425.91060168 C475.15751317 421.50985034 475.15930475 417.10911531 475.16004276 412.70835745 C475.16189371 407.9631091 475.16944132 403.2178692 475.17617798 398.47262573 C475.18976088 388.09434906 475.19578611 377.71607624 475.20018864 367.33779216 C475.20295144 360.8565524 475.2071889 354.37531414 475.21169281 347.89407539 C475.22388601 329.9471124 475.23418484 312.0001506 475.2375679 294.05318356 C475.23778747 292.90447713 475.23800703 291.7557707 475.23823325 290.57225499 C475.23845153 289.42080623 475.23866981 288.26935748 475.2388947 287.08301634 C475.23933817 284.74976154 475.23978473 282.41650675 475.24023438 280.08325195 C475.2404558 278.92587804 475.24067723 277.76850413 475.24090537 276.57605828 C475.2448522 257.82830498 475.26230249 239.08059057 475.2855939 220.3328523 C475.30931744 201.08174325 475.32177023 181.83065372 475.32293582 162.57952982 C475.32385208 151.77204779 475.32959194 140.96461642 475.34775543 130.15714836 C475.36317002 120.95288087 475.3682689 111.7486797 475.36001733 102.54440176 C475.35611549 97.85028774 475.35701761 93.15630722 475.37107468 88.4622097 C475.38384161 84.15947011 475.38259164 79.85696395 475.37048396 75.55422456 C475.36853178 74.00302452 475.37158314 72.45180779 475.38032833 70.90063118 C475.45359554 57.01870284 474.28222332 44.69050193 464.3359375 34.25390625 C456.89380675 27.44044864 449.28099027 24.88086192 439.27506733 24.86577892 C438.60876321 24.86342669 437.9424591 24.86107446 437.25596395 24.85865095 C435.01936581 24.85198473 432.78282609 24.85241845 430.54621887 24.85282898 C428.92798308 24.84952889 427.30974811 24.84580301 425.69151419 24.8416875 C421.24129732 24.83167616 416.79109394 24.82795211 412.3408674 24.82529819 C407.54248569 24.82139265 402.74411464 24.81181458 397.94573975 24.80308533 C386.35702163 24.78332947 374.76830264 24.77325647 363.1795719 24.76435754 C357.72220413 24.75997378 352.26483733 24.75460725 346.80747032 24.74936867 C328.66663343 24.73235835 310.52579714 24.71786362 292.3849535 24.71061993 C287.67810376 24.70871004 282.97125402 24.7067897 278.2644043 24.70483398 C276.50961281 24.70410837 276.50961281 24.70410837 274.71937098 24.7033681 C255.76332548 24.69506565 236.80734303 24.66972419 217.85132507 24.63725331 C198.39004366 24.6041886 178.92879431 24.58617175 159.46748465 24.58297569 C148.54044063 24.5808102 137.6134886 24.57205571 126.68647194 24.54651451 C117.38185727 24.52481571 108.07735694 24.51675314 98.77271984 24.52648129 C94.02615726 24.53102815 89.27983066 24.52911718 84.5333004 24.50971985 C80.18496487 24.49210335 75.83703775 24.49307358 71.48869797 24.50861714 C69.91868839 24.51099549 68.34865063 24.50665785 66.77868412 24.49478849 C51.94926783 24.38965108 40.83823744 27.64471035 31.1875 39.375 Z " fill="#FEFEFE" transform="translate(0,0)"/>
<path d="M0 0 C0.66 0 1.32 0 2 0 C3.35351562 1.64208984 3.35351562 1.64208984 4.90625 3.9609375 C5.48036621 4.81598877 6.05448242 5.67104004 6.64599609 6.55200195 C7.25781738 7.48359131 7.86963867 8.41518066 8.5 9.375 C9.1285791 10.32656982 9.7571582 11.27813965 10.40478516 12.25854492 C16.07199662 20.93560474 21.18975608 29.82522412 26 39 C26.34192383 39.64146973 26.68384766 40.28293945 27.03613281 40.94384766 C44.79663812 74.38098204 55.281626 110.69682699 61 148 C61.11327637 148.73605469 61.22655273 149.47210938 61.34326172 150.23046875 C69.79495549 206.30805776 61.34095569 265.88211083 38.91894531 317.859375 C38.04413532 319.89718957 37.20183897 321.94547332 36.3671875 324 C28.91858896 342.04190935 18.8842433 358.84504045 8 375 C-0.28947192 366.41447551 -0.58004664 355.31421241 -0.48101807 344.048172 C-0.48276537 342.55787208 -0.48627319 341.06757338 -0.49137473 339.57728118 C-0.50026747 335.50880911 -0.48439031 331.44076274 -0.46426249 327.37234485 C-0.44691905 322.9750882 -0.45283904 318.57785376 -0.45587158 314.18057251 C-0.4579646 306.57086861 -0.44546056 298.96130235 -0.42292023 291.35163307 C-0.39035242 280.34947802 -0.37998832 269.34738923 -0.37496826 258.3451912 C-0.3662231 240.49302924 -0.33962868 222.64094056 -0.30175781 204.78881836 C-0.26501755 187.45158249 -0.23671565 170.11436657 -0.21972656 152.77709961 C-0.21867567 151.70765816 -0.21762477 150.6382167 -0.21654204 149.53636793 C-0.21132172 144.17106345 -0.20626693 138.80575884 -0.20129442 133.44045413 C-0.15985666 88.960252 -0.08942946 44.48012979 0 0 Z " fill="#229FC2" transform="translate(25,87)"/>
</svg>
