<svg id="svg" version="1.1" xmlns="http://www.w3.org/2000/svg" xmlns:xlink="http://www.w3.org/1999/xlink" width="400" height="400" viewBox="0, 0, 400,400"><g id="svgg"><path id="path0" d="M62.800 290.967 C 62.800 291.498,62.665 291.993,62.500 292.067 C 62.335 292.140,61.509 294.270,60.664 296.800 C 58.083 304.532,55.460 311.586,53.640 315.696 C 53.178 316.738,52.800 317.686,52.800 317.801 C 52.800 318.890,48.746 326.356,48.512 325.700 C 48.414 325.425,47.988 325.200,47.567 325.200 C 47.145 325.200,46.800 325.020,46.800 324.800 C 46.800 324.580,46.480 324.400,46.088 324.400 C 45.697 324.400,45.117 324.040,44.800 323.600 C 44.483 323.160,43.903 322.800,43.512 322.800 C 43.120 322.800,42.800 322.620,42.800 322.400 C 42.800 322.180,42.480 322.000,42.088 322.000 C 41.697 322.000,41.117 321.640,40.800 321.200 C 40.483 320.760,39.903 320.400,39.512 320.400 C 39.120 320.400,38.800 320.220,38.800 320.000 C 38.800 319.780,38.480 319.600,38.088 319.600 C 37.697 319.600,37.117 319.240,36.800 318.800 C 36.483 318.360,35.903 318.000,35.512 318.000 C 35.120 318.000,34.800 317.820,34.800 317.600 C 34.800 317.380,34.480 317.200,34.088 317.200 C 33.697 317.200,33.117 316.840,32.800 316.400 C 32.483 315.960,31.943 315.600,31.600 315.600 C 31.257 315.600,30.717 315.240,30.400 314.800 C 30.083 314.360,29.503 314.000,29.112 314.000 C 28.720 314.000,28.400 313.820,28.400 313.600 C 28.400 313.380,28.080 313.200,27.688 313.200 C 27.297 313.200,26.717 312.840,26.400 312.400 C 26.083 311.960,25.503 311.600,25.112 311.600 C 24.720 311.600,24.400 311.420,24.400 311.200 C 24.400 310.980,24.080 310.800,23.688 310.800 C 23.297 310.800,22.717 310.440,22.400 310.000 C 22.083 309.560,21.494 309.200,21.092 309.200 C 20.045 309.200,20.225 356.620,21.282 359.600 C 25.265 370.822,32.700 377.495,43.400 379.449 C 46.312 379.981,257.379 379.913,257.945 379.380 C 258.024 379.305,256.989 378.164,255.645 376.844 C 254.300 375.524,253.200 374.249,253.200 374.009 C 253.200 373.770,251.220 371.606,248.800 369.200 C 246.380 366.794,244.400 364.634,244.400 364.400 C 244.400 364.166,242.420 362.006,240.000 359.600 C 237.580 357.194,235.600 355.034,235.600 354.800 C 235.600 354.566,233.620 352.406,231.200 350.000 C 228.780 347.594,226.800 345.432,226.800 345.195 C 226.800 344.958,226.341 344.305,225.780 343.744 L 224.760 342.724 224.033 343.562 C 223.633 344.023,223.037 344.400,222.709 344.400 C 222.380 344.400,220.151 345.700,217.756 347.289 C 215.360 348.878,213.040 350.382,212.600 350.632 C 212.160 350.882,210.540 351.864,209.000 352.813 C 203.377 356.280,193.857 361.200,192.772 361.200 C 191.906 361.200,190.000 359.535,190.000 358.779 C 190.000 358.527,189.460 357.817,188.800 357.200 C 188.140 356.583,187.600 355.863,187.600 355.600 C 187.600 355.337,187.060 354.617,186.400 354.000 C 185.740 353.383,185.200 352.667,185.200 352.408 C 185.200 352.149,184.480 351.246,183.600 350.400 C 182.720 349.554,182.000 348.651,182.000 348.392 C 182.000 348.133,181.460 347.417,180.800 346.800 C 180.140 346.183,179.600 345.463,179.600 345.200 C 179.600 344.937,179.060 344.217,178.400 343.600 C 177.740 342.983,177.200 342.267,177.200 342.008 C 177.200 341.749,176.480 340.846,175.600 340.000 C 174.720 339.154,174.000 338.251,174.000 337.992 C 174.000 337.733,173.460 337.017,172.800 336.400 C 172.140 335.783,171.600 335.063,171.600 334.800 C 171.600 334.537,171.060 333.817,170.400 333.200 C 169.740 332.583,169.200 331.867,169.200 331.608 C 169.200 331.349,168.480 330.446,167.600 329.600 C 166.720 328.754,166.000 327.851,166.000 327.592 C 166.000 327.333,165.460 326.617,164.800 326.000 C 164.140 325.383,163.600 324.667,163.600 324.408 C 163.600 324.149,162.880 323.246,162.000 322.400 C 161.120 321.554,160.400 320.651,160.400 320.392 C 160.400 320.133,159.860 319.417,159.200 318.800 C 158.540 318.183,158.000 317.463,158.000 317.200 C 158.000 316.937,157.460 316.217,156.800 315.600 C 156.140 314.983,155.600 314.267,155.600 314.008 C 155.600 313.749,154.880 312.846,154.000 312.000 C 153.120 311.154,152.400 310.251,152.400 309.992 C 152.400 309.733,151.860 309.017,151.200 308.400 C 150.540 307.783,150.000 307.063,150.000 306.800 C 150.000 306.537,149.460 305.817,148.800 305.200 C 148.140 304.583,147.600 303.867,147.600 303.608 C 147.600 303.349,146.880 302.446,146.000 301.600 C 145.120 300.754,144.400 299.851,144.400 299.592 C 144.400 299.333,143.860 298.617,143.200 298.000 C 142.540 297.383,142.000 296.675,142.000 296.426 C 142.000 295.979,139.427 293.200,139.013 293.200 C 138.896 293.200,138.800 293.438,138.800 293.728 C 138.800 294.019,138.019 295.072,137.065 296.068 C 136.111 297.063,134.111 299.391,132.622 301.239 C 125.185 310.468,118.800 316.178,118.800 313.600 C 118.800 313.380,118.440 313.200,118.000 313.200 C 117.560 313.200,117.200 313.020,117.200 312.800 C 117.200 312.580,116.660 312.400,116.000 312.400 C 115.340 312.400,114.800 312.220,114.800 312.000 C 114.800 311.780,114.440 311.600,114.000 311.600 C 113.560 311.600,113.200 311.420,113.200 311.200 C 113.200 310.980,112.840 310.800,112.400 310.800 C 111.960 310.800,111.600 310.620,111.600 310.400 C 111.600 310.180,111.060 310.000,110.400 310.000 C 109.740 310.000,109.200 309.820,109.200 309.600 C 109.200 309.380,108.840 309.200,108.400 309.200 C 107.960 309.200,107.600 309.020,107.600 308.800 C 107.600 308.580,107.240 308.400,106.800 308.400 C 106.360 308.400,106.000 308.220,106.000 308.000 C 106.000 307.780,105.640 307.600,105.200 307.600 C 104.760 307.600,104.400 307.420,104.400 307.200 C 104.400 306.980,103.860 306.800,103.200 306.800 C 102.540 306.800,102.000 306.620,102.000 306.400 C 102.000 306.180,101.640 306.000,101.200 306.000 C 100.760 306.000,100.400 305.820,100.400 305.600 C 100.400 305.380,100.040 305.200,99.600 305.200 C 99.160 305.200,98.800 305.020,98.800 304.800 C 98.800 304.580,98.260 304.400,97.600 304.400 C 96.940 304.400,96.400 304.220,96.400 304.000 C 96.400 303.780,96.040 303.600,95.600 303.600 C 95.160 303.600,94.800 303.420,94.800 303.200 C 94.800 302.980,94.440 302.800,94.000 302.800 C 93.560 302.800,93.200 302.620,93.200 302.400 C 93.200 302.180,92.660 302.000,92.000 302.000 C 91.340 302.000,90.800 301.820,90.800 301.600 C 90.800 301.380,90.440 301.200,90.000 301.200 C 89.560 301.200,89.200 301.020,89.200 300.800 C 89.200 300.580,88.840 300.400,88.400 300.400 C 87.960 300.400,87.600 300.220,87.600 300.000 C 87.600 299.780,87.060 299.600,86.400 299.600 C 85.740 299.600,85.200 299.420,85.200 299.200 C 85.200 298.980,84.840 298.800,84.400 298.800 C 83.960 298.800,83.600 298.620,83.600 298.400 C 83.600 298.180,83.240 298.000,82.800 298.000 C 82.360 298.000,82.000 297.820,82.000 297.600 C 82.000 297.380,81.460 297.200,80.800 297.200 C 80.140 297.200,79.600 297.020,79.600 296.800 C 79.600 296.580,79.240 296.400,78.800 296.400 C 78.360 296.400,78.000 296.220,78.000 296.000 C 78.000 295.780,77.640 295.600,77.200 295.600 C 76.760 295.600,76.400 295.420,76.400 295.200 C 76.400 294.980,75.860 294.800,75.200 294.800 C 74.540 294.800,74.000 294.620,74.000 294.400 C 74.000 294.180,73.640 294.000,73.200 294.000 C 72.760 294.000,72.400 293.820,72.400 293.600 C 72.400 293.380,72.040 293.200,71.600 293.200 C 71.160 293.200,70.800 293.020,70.800 292.800 C 70.800 292.580,70.260 292.400,69.600 292.400 C 68.940 292.400,68.400 292.220,68.400 292.000 C 68.400 291.780,68.040 291.600,67.600 291.600 C 67.160 291.600,66.800 291.420,66.800 291.200 C 66.800 290.980,66.440 290.800,66.000 290.800 C 65.560 290.800,65.200 290.620,65.200 290.400 C 65.200 290.180,64.660 290.000,64.000 290.000 C 62.998 290.000,62.800 290.159,62.800 290.967 " stroke="none" fill="#4249da" fill-rule="evenodd"></path><path id="path1" d="M71.049 235.700 C 70.181 244.815,68.813 255.858,68.027 260.100 C 67.792 261.365,67.428 263.345,67.219 264.500 C 67.009 265.655,66.541 267.860,66.179 269.400 C 65.817 270.940,65.429 272.785,65.317 273.500 C 65.126 274.717,63.600 275.517,63.600 274.400 C 63.600 274.180,63.280 274.000,62.888 274.000 C 62.497 274.000,61.917 273.640,61.600 273.200 C 61.283 272.760,60.703 272.400,60.312 272.400 C 59.920 272.400,59.600 272.220,59.600 272.000 C 59.600 271.780,59.280 271.600,58.888 271.600 C 58.497 271.600,57.917 271.240,57.600 270.800 C 57.283 270.360,56.703 270.000,56.312 270.000 C 55.920 270.000,55.600 269.820,55.600 269.600 C 55.600 269.380,55.280 269.200,54.888 269.200 C 54.497 269.200,53.917 268.840,53.600 268.400 C 53.283 267.960,52.703 267.600,52.312 267.600 C 51.920 267.600,51.600 267.420,51.600 267.200 C 51.600 266.980,51.280 266.800,50.888 266.800 C 50.497 266.800,49.917 266.440,49.600 266.000 C 49.283 265.560,48.703 265.200,48.312 265.200 C 47.920 265.200,47.600 265.020,47.600 264.800 C 47.600 264.580,47.280 264.400,46.888 264.400 C 46.497 264.400,45.917 264.040,45.600 263.600 C 45.283 263.160,44.703 262.800,44.312 262.800 C 43.920 262.800,43.600 262.620,43.600 262.400 C 43.600 262.180,43.280 262.000,42.888 262.000 C 42.497 262.000,41.917 261.640,41.600 261.200 C 41.283 260.760,40.703 260.400,40.312 260.400 C 39.920 260.400,39.600 260.220,39.600 260.000 C 39.600 259.780,39.280 259.600,38.888 259.600 C 38.497 259.600,37.917 259.240,37.600 258.800 C 37.283 258.360,36.703 258.000,36.312 258.000 C 35.920 258.000,35.600 257.820,35.600 257.600 C 35.600 257.380,35.280 257.200,34.888 257.200 C 34.497 257.200,33.917 256.840,33.600 256.400 C 33.283 255.960,32.703 255.600,32.312 255.600 C 31.920 255.600,31.600 255.420,31.600 255.200 C 31.600 254.980,31.280 254.800,30.888 254.800 C 30.497 254.800,29.917 254.440,29.600 254.000 C 29.283 253.560,28.703 253.200,28.312 253.200 C 27.920 253.200,27.600 253.020,27.600 252.800 C 27.600 252.580,27.280 252.400,26.888 252.400 C 26.497 252.400,25.917 252.040,25.600 251.600 C 25.283 251.160,24.703 250.800,24.312 250.800 C 23.920 250.800,23.600 250.620,23.600 250.400 C 23.600 250.180,23.306 250.000,22.947 250.000 C 22.588 250.000,21.957 249.611,21.544 249.136 C 21.132 248.661,20.709 248.358,20.604 248.463 C 20.260 248.806,19.931 354.970,20.270 356.094 C 20.451 356.696,20.548 346.391,20.485 333.194 C 20.375 310.233,20.402 309.200,21.097 309.200 C 21.496 309.200,22.083 309.560,22.400 310.000 C 22.717 310.440,23.297 310.800,23.688 310.800 C 24.080 310.800,24.400 310.980,24.400 311.200 C 24.400 311.420,24.720 311.600,25.112 311.600 C 25.503 311.600,26.083 311.960,26.400 312.400 C 26.717 312.840,27.297 313.200,27.688 313.200 C 28.080 313.200,28.400 313.380,28.400 313.600 C 28.400 313.820,28.720 314.000,29.112 314.000 C 29.503 314.000,30.083 314.360,30.400 314.800 C 30.717 315.240,31.257 315.600,31.600 315.600 C 31.943 315.600,32.483 315.960,32.800 316.400 C 33.117 316.840,33.697 317.200,34.088 317.200 C 34.480 317.200,34.800 317.380,34.800 317.600 C 34.800 317.820,35.120 318.000,35.512 318.000 C 35.903 318.000,36.483 318.360,36.800 318.800 C 37.117 319.240,37.697 319.600,38.088 319.600 C 38.480 319.600,38.800 319.780,38.800 320.000 C 38.800 320.220,39.120 320.400,39.512 320.400 C 39.903 320.400,40.483 320.760,40.800 321.200 C 41.117 321.640,41.697 322.000,42.088 322.000 C 42.480 322.000,42.800 322.180,42.800 322.400 C 42.800 322.620,43.120 322.800,43.512 322.800 C 43.903 322.800,44.483 323.160,44.800 323.600 C 45.117 324.040,45.697 324.400,46.088 324.400 C 46.480 324.400,46.800 324.580,46.800 324.800 C 46.800 325.020,47.145 325.200,47.567 325.200 C 47.988 325.200,48.414 325.425,48.512 325.700 C 48.746 326.356,52.800 318.890,52.800 317.801 C 52.800 317.686,53.178 316.738,53.640 315.696 C 54.701 313.301,54.850 312.929,56.402 308.800 C 58.348 303.621,58.996 301.798,60.664 296.800 C 61.509 294.270,62.335 292.140,62.500 292.067 C 62.665 291.993,62.800 291.498,62.800 290.967 C 62.800 290.159,62.998 290.000,64.000 290.000 C 64.660 290.000,65.200 290.180,65.200 290.400 C 65.200 290.620,65.560 290.800,66.000 290.800 C 66.440 290.800,66.800 290.980,66.800 291.200 C 66.800 291.420,67.160 291.600,67.600 291.600 C 68.040 291.600,68.400 291.780,68.400 292.000 C 68.400 292.220,68.940 292.400,69.600 292.400 C 70.260 292.400,70.800 292.580,70.800 292.800 C 70.800 293.020,71.160 293.200,71.600 293.200 C 72.040 293.200,72.400 293.380,72.400 293.600 C 72.400 293.820,72.760 294.000,73.200 294.000 C 73.640 294.000,74.000 294.180,74.000 294.400 C 74.000 294.620,74.540 294.800,75.200 294.800 C 75.860 294.800,76.400 294.980,76.400 295.200 C 76.400 295.420,76.760 295.600,77.200 295.600 C 77.640 295.600,78.000 295.780,78.000 296.000 C 78.000 296.220,78.360 296.400,78.800 296.400 C 79.240 296.400,79.600 296.580,79.600 296.800 C 79.600 297.020,80.140 297.200,80.800 297.200 C 81.460 297.200,82.000 297.380,82.000 297.600 C 82.000 297.820,82.360 298.000,82.800 298.000 C 83.240 298.000,83.600 298.180,83.600 298.400 C 83.600 298.620,83.960 298.800,84.400 298.800 C 84.840 298.800,85.200 298.980,85.200 299.200 C 85.200 299.420,85.740 299.600,86.400 299.600 C 87.060 299.600,87.600 299.780,87.600 300.000 C 87.600 300.220,87.960 300.400,88.400 300.400 C 88.840 300.400,89.200 300.580,89.200 300.800 C 89.200 301.020,89.560 301.200,90.000 301.200 C 90.440 301.200,90.800 301.380,90.800 301.600 C 90.800 301.820,91.340 302.000,92.000 302.000 C 92.660 302.000,93.200 302.180,93.200 302.400 C 93.200 302.620,93.560 302.800,94.000 302.800 C 94.440 302.800,94.800 302.980,94.800 303.200 C 94.800 303.420,95.160 303.600,95.600 303.600 C 96.040 303.600,96.400 303.780,96.400 304.000 C 96.400 304.220,96.940 304.400,97.600 304.400 C 98.260 304.400,98.800 304.580,98.800 304.800 C 98.800 305.020,99.160 305.200,99.600 305.200 C 100.040 305.200,100.400 305.380,100.400 305.600 C 100.400 305.820,100.760 306.000,101.200 306.000 C 101.640 306.000,102.000 306.180,102.000 306.400 C 102.000 306.620,102.540 306.800,103.200 306.800 C 103.860 306.800,104.400 306.980,104.400 307.200 C 104.400 307.420,104.760 307.600,105.200 307.600 C 105.640 307.600,106.000 307.780,106.000 308.000 C 106.000 308.220,106.360 308.400,106.800 308.400 C 107.240 308.400,107.600 308.580,107.600 308.800 C 107.600 309.020,107.960 309.200,108.400 309.200 C 108.840 309.200,109.200 309.380,109.200 309.600 C 109.200 309.820,109.740 310.000,110.400 310.000 C 111.060 310.000,111.600 310.180,111.600 310.400 C 111.600 310.620,111.960 310.800,112.400 310.800 C 112.840 310.800,113.200 310.980,113.200 311.200 C 113.200 311.420,113.560 311.600,114.000 311.600 C 114.440 311.600,114.800 311.780,114.800 312.000 C 114.800 312.220,115.340 312.400,116.000 312.400 C 116.660 312.400,117.200 312.580,117.200 312.800 C 117.200 313.020,117.560 313.200,118.000 313.200 C 118.440 313.200,118.800 313.380,118.800 313.600 C 118.800 316.178,125.185 310.468,132.622 301.239 C 134.111 299.391,136.111 297.063,137.065 296.068 C 138.019 295.072,138.800 294.019,138.800 293.728 C 138.800 293.438,138.896 293.200,139.013 293.200 C 139.427 293.200,142.000 295.979,142.000 296.426 C 142.000 296.675,142.540 297.383,143.200 298.000 C 143.860 298.617,144.400 299.333,144.400 299.592 C 144.400 299.851,145.120 300.754,146.000 301.600 C 146.880 302.446,147.600 303.349,147.600 303.608 C 147.600 303.867,148.140 304.583,148.800 305.200 C 149.460 305.817,150.000 306.537,150.000 306.800 C 150.000 307.063,150.540 307.783,151.200 308.400 C 151.860 309.017,152.400 309.733,152.400 309.992 C 152.400 310.251,153.120 311.154,154.000 312.000 C 154.880 312.846,155.600 313.749,155.600 314.008 C 155.600 314.267,156.140 314.983,156.800 315.600 C 157.460 316.217,158.000 316.937,158.000 317.200 C 158.000 317.463,158.540 318.183,159.200 318.800 C 159.860 319.417,160.400 320.133,160.400 320.392 C 160.400 320.651,161.120 321.554,162.000 322.400 C 162.880 323.246,163.600 324.149,163.600 324.408 C 163.600 324.667,164.140 325.383,164.800 326.000 C 165.460 326.617,166.000 327.333,166.000 327.592 C 166.000 327.851,166.720 328.754,167.600 329.600 C 168.480 330.446,169.200 331.349,169.200 331.608 C 169.200 331.867,169.740 332.583,170.400 333.200 C 171.060 333.817,171.600 334.537,171.600 334.800 C 171.600 335.063,172.140 335.783,172.800 336.400 C 173.460 337.017,174.000 337.733,174.000 337.992 C 174.000 338.251,174.720 339.154,175.600 340.000 C 176.480 340.846,177.200 341.749,177.200 342.008 C 177.200 342.267,177.740 342.983,178.400 343.600 C 179.060 344.217,179.600 344.937,179.600 345.200 C 179.600 345.463,180.140 346.183,180.800 346.800 C 181.460 347.417,182.000 348.133,182.000 348.392 C 182.000 348.651,182.720 349.554,183.600 350.400 C 184.480 351.246,185.200 352.149,185.200 352.408 C 185.200 352.667,185.740 353.383,186.400 354.000 C 187.060 354.617,187.600 355.337,187.600 355.600 C 187.600 355.863,188.140 356.583,188.800 357.200 C 189.460 357.817,190.000 358.527,190.000 358.779 C 190.000 359.535,191.906 361.200,192.772 361.200 C 193.857 361.200,203.377 356.280,209.000 352.813 C 210.540 351.864,212.160 350.882,212.600 350.632 C 213.040 350.382,215.360 348.878,217.756 347.289 C 220.151 345.700,222.380 344.400,222.709 344.400 C 223.037 344.400,223.633 344.023,224.033 343.562 L 224.760 342.724 225.780 343.744 C 226.341 344.305,226.800 344.958,226.800 345.195 C 226.800 345.432,228.780 347.594,231.200 350.000 C 233.620 352.406,235.600 354.566,235.600 354.800 C 235.600 355.034,237.580 357.194,240.000 359.600 C 242.420 362.006,244.400 364.166,244.400 364.400 C 244.400 364.634,246.380 366.794,248.800 369.200 C 251.220 371.606,253.200 373.770,253.200 374.009 C 253.200 374.249,254.280 375.504,255.600 376.800 C 256.920 378.096,258.000 379.255,258.000 379.376 C 258.000 379.497,237.975 379.658,213.500 379.733 C 189.025 379.808,210.296 379.814,260.768 379.746 C 323.002 379.663,352.669 379.491,352.948 379.212 C 353.175 378.985,354.044 378.800,354.880 378.800 C 356.812 378.800,356.799 378.737,354.400 376.400 C 353.300 375.329,352.400 374.255,352.400 374.013 C 352.400 373.772,350.420 371.606,348.000 369.200 C 345.580 366.794,343.600 364.634,343.600 364.400 C 343.600 364.166,341.620 362.006,339.200 359.600 C 336.780 357.194,334.800 355.034,334.800 354.800 C 334.800 354.566,332.820 352.406,330.400 350.000 C 327.980 347.594,326.000 345.434,326.000 345.200 C 326.000 344.966,324.020 342.806,321.600 340.400 C 319.180 337.994,317.200 335.834,317.200 335.600 C 317.200 335.366,315.220 333.206,312.800 330.800 C 310.380 328.394,308.400 326.234,308.400 326.000 C 308.400 325.766,306.420 323.606,304.000 321.200 C 301.580 318.794,299.600 316.634,299.600 316.400 C 299.600 316.166,297.620 314.006,295.200 311.600 C 292.780 309.194,290.800 307.034,290.800 306.800 C 290.800 306.566,288.820 304.406,286.400 302.000 C 283.980 299.594,282.000 297.436,282.000 297.205 C 282.000 296.089,276.787 291.556,276.189 292.153 C 275.865 292.478,275.600 292.844,275.600 292.968 C 275.600 293.092,275.101 293.690,274.491 294.297 C 273.880 294.903,271.497 297.552,269.195 300.181 C 261.931 308.479,252.968 317.439,246.658 322.712 C 245.543 323.644,244.400 323.282,244.400 321.997 C 244.400 321.744,243.680 320.846,242.800 320.000 C 241.920 319.154,241.200 318.251,241.200 317.992 C 241.200 317.733,240.660 317.017,240.000 316.400 C 239.340 315.783,238.800 315.063,238.800 314.800 C 238.800 314.537,238.260 313.817,237.600 313.200 C 236.940 312.583,236.400 311.867,236.400 311.608 C 236.400 311.349,235.680 310.446,234.800 309.600 C 233.920 308.754,233.200 307.851,233.200 307.592 C 233.200 307.333,232.660 306.617,232.000 306.000 C 231.340 305.383,230.800 304.667,230.800 304.408 C 230.800 304.149,230.080 303.246,229.200 302.400 C 228.320 301.554,227.600 300.651,227.600 300.392 C 227.600 300.133,227.060 299.417,226.400 298.800 C 225.740 298.183,225.200 297.463,225.200 297.200 C 225.200 296.937,224.660 296.217,224.000 295.600 C 223.340 294.983,222.800 294.267,222.800 294.008 C 222.800 293.749,222.080 292.846,221.200 292.000 C 220.320 291.154,219.600 290.251,219.600 289.992 C 219.600 289.733,219.060 289.017,218.400 288.400 C 217.740 287.783,217.200 287.063,217.200 286.800 C 217.200 286.537,216.660 285.817,216.000 285.200 C 215.340 284.583,214.800 283.867,214.800 283.608 C 214.800 283.349,214.080 282.446,213.200 281.600 C 212.320 280.754,211.600 279.851,211.600 279.592 C 211.600 279.333,211.060 278.617,210.400 278.000 C 209.740 277.383,209.200 276.663,209.200 276.400 C 209.200 276.137,208.660 275.417,208.000 274.800 C 207.340 274.183,206.800 273.467,206.800 273.208 C 206.800 272.949,206.080 272.046,205.200 271.200 C 204.320 270.354,203.600 269.451,203.600 269.192 C 203.600 268.933,203.060 268.217,202.400 267.600 C 201.740 266.983,201.200 266.267,201.200 266.008 C 201.200 265.749,200.480 264.846,199.600 264.000 C 198.720 263.154,198.000 262.251,198.000 261.992 C 198.000 261.733,197.460 261.017,196.800 260.400 C 196.140 259.783,195.600 259.063,195.600 258.800 C 195.600 258.537,195.060 257.817,194.400 257.200 C 193.740 256.583,193.200 255.867,193.200 255.608 C 193.200 255.349,192.480 254.446,191.600 253.600 C 190.720 252.754,190.000 251.851,190.000 251.592 C 190.000 251.333,189.460 250.617,188.800 250.000 C 188.140 249.383,187.600 248.663,187.600 248.400 C 187.600 248.137,187.060 247.417,186.400 246.800 C 185.740 246.183,185.200 245.467,185.200 245.208 C 185.200 244.949,184.480 244.046,183.600 243.200 C 182.720 242.354,182.000 241.451,182.000 241.192 C 182.000 240.933,181.460 240.217,180.800 239.600 C 180.140 238.983,179.600 238.263,179.600 238.000 C 179.600 237.737,179.060 237.017,178.400 236.400 C 177.740 235.783,177.200 235.067,177.200 234.808 C 177.200 234.549,176.480 233.646,175.600 232.800 C 174.720 231.954,174.000 231.056,174.000 230.803 C 174.000 230.329,173.034 229.200,172.629 229.200 C 172.503 229.200,172.400 229.725,172.400 230.367 C 172.400 231.008,172.258 231.593,172.084 231.667 C 171.737 231.813,170.186 235.009,168.574 238.902 C 166.884 242.980,160.235 256.328,158.014 260.100 C 156.058 263.423,155.884 263.600,154.577 263.600 C 153.820 263.600,153.200 263.420,153.200 263.200 C 153.200 262.980,152.840 262.800,152.400 262.800 C 151.960 262.800,151.600 262.620,151.600 262.400 C 151.600 262.180,151.240 262.000,150.800 262.000 C 150.360 262.000,150.000 261.820,150.000 261.600 C 150.000 261.380,149.460 261.200,148.800 261.200 C 148.140 261.200,147.600 261.020,147.600 260.800 C 147.600 260.580,147.240 260.400,146.800 260.400 C 146.360 260.400,146.000 260.220,146.000 260.000 C 146.000 259.780,145.640 259.600,145.200 259.600 C 144.760 259.600,144.400 259.420,144.400 259.200 C 144.400 258.980,143.860 258.800,143.200 258.800 C 142.540 258.800,142.000 258.620,142.000 258.400 C 142.000 258.180,141.640 258.000,141.200 258.000 C 140.760 258.000,140.400 257.820,140.400 257.600 C 140.400 257.380,140.040 257.200,139.600 257.200 C 139.160 257.200,138.800 257.020,138.800 256.800 C 138.800 256.580,138.440 256.400,138.000 256.400 C 137.560 256.400,137.200 256.220,137.200 256.000 C 137.200 255.780,136.660 255.600,136.000 255.600 C 135.340 255.600,134.800 255.420,134.800 255.200 C 134.800 254.980,134.440 254.800,134.000 254.800 C 133.560 254.800,133.200 254.620,133.200 254.400 C 133.200 254.180,132.840 254.000,132.400 254.000 C 131.960 254.000,131.600 253.820,131.600 253.600 C 131.600 253.380,131.060 253.200,130.400 253.200 C 129.740 253.200,129.200 253.020,129.200 252.800 C 129.200 252.580,128.840 252.400,128.400 252.400 C 127.960 252.400,127.600 252.220,127.600 252.000 C 127.600 251.780,127.240 251.600,126.800 251.600 C 126.360 251.600,126.000 251.420,126.000 251.200 C 126.000 250.980,125.460 250.800,124.800 250.800 C 124.140 250.800,123.600 250.620,123.600 250.400 C 123.600 250.180,123.240 250.000,122.800 250.000 C 122.360 250.000,122.000 249.820,122.000 249.600 C 122.000 249.380,121.640 249.200,121.200 249.200 C 120.760 249.200,120.400 249.020,120.400 248.800 C 120.400 248.580,119.860 248.400,119.200 248.400 C 118.540 248.400,118.000 248.220,118.000 248.000 C 118.000 247.780,117.640 247.600,117.200 247.600 C 116.760 247.600,116.400 247.420,116.400 247.200 C 116.400 246.980,116.040 246.800,115.600 246.800 C 115.160 246.800,114.800 246.620,114.800 246.400 C 114.800 246.180,114.260 246.000,113.600 246.000 C 112.940 246.000,112.400 245.820,112.400 245.600 C 112.400 245.380,112.040 245.200,111.600 245.200 C 111.160 245.200,110.800 245.020,110.800 244.800 C 110.800 244.580,110.440 244.400,110.000 244.400 C 109.560 244.400,109.200 244.220,109.200 244.000 C 109.200 243.780,108.660 243.600,108.000 243.600 C 107.340 243.600,106.800 243.420,106.800 243.200 C 106.800 242.980,106.440 242.800,106.000 242.800 C 105.560 242.800,105.200 242.620,105.200 242.400 C 105.200 242.180,104.840 242.000,104.400 242.000 C 103.960 242.000,103.600 241.820,103.600 241.600 C 103.600 241.380,103.060 241.200,102.400 241.200 C 101.740 241.200,101.200 241.020,101.200 240.800 C 101.200 240.580,100.840 240.400,100.400 240.400 C 99.960 240.400,99.600 240.220,99.600 240.000 C 99.600 239.780,99.240 239.600,98.800 239.600 C 98.360 239.600,98.000 239.420,98.000 239.200 C 98.000 238.980,97.640 238.800,97.200 238.800 C 96.760 238.800,96.400 238.620,96.400 238.400 C 96.400 238.180,95.860 238.000,95.200 238.000 C 94.540 238.000,94.000 237.820,94.000 237.600 C 94.000 237.380,93.640 237.200,93.200 237.200 C 92.760 237.200,92.400 237.020,92.400 236.800 C 92.400 236.580,92.040 236.400,91.600 236.400 C 91.160 236.400,90.800 236.220,90.800 236.000 C 90.800 235.780,90.260 235.600,89.600 235.600 C 88.940 235.600,88.400 235.420,88.400 235.200 C 88.400 234.980,88.040 234.800,87.600 234.800 C 87.160 234.800,86.800 234.620,86.800 234.400 C 86.800 234.180,86.440 234.000,86.000 234.000 C 85.560 234.000,85.200 233.820,85.200 233.600 C 85.200 233.380,84.660 233.200,84.000 233.200 C 83.340 233.200,82.800 233.020,82.800 232.800 C 82.800 232.580,82.440 232.400,82.000 232.400 C 81.560 232.400,81.200 232.220,81.200 232.000 C 81.200 231.780,80.840 231.600,80.400 231.600 C 79.960 231.600,79.600 231.420,79.600 231.200 C 79.600 230.980,79.060 230.800,78.400 230.800 C 77.740 230.800,77.200 230.620,77.200 230.400 C 77.200 230.180,76.840 230.000,76.400 230.000 C 75.960 230.000,75.600 229.820,75.600 229.600 C 75.600 229.380,75.240 229.200,74.800 229.200 C 74.360 229.200,74.000 229.020,74.000 228.800 C 74.000 228.580,73.492 228.400,72.872 228.400 L 71.744 228.400 71.049 235.700 M21.600 361.284 C 21.600 361.716,22.815 364.400,23.011 364.400 C 23.121 364.400,22.933 363.734,22.593 362.921 C 21.993 361.486,21.600 360.838,21.600 361.284 M23.200 364.913 C 23.200 365.295,26.050 369.600,26.303 369.600 C 26.407 369.600,26.172 369.105,25.782 368.500 C 24.044 365.808,23.200 364.636,23.200 364.913 M136.924 379.899 C 140.183 379.967,145.403 379.966,148.524 379.899 C 151.646 379.831,148.980 379.776,142.600 379.777 C 136.220 379.777,133.666 379.832,136.924 379.899 " stroke="none" fill="#3275ce" fill-rule="evenodd"></path><path id="path2" d="M0.000 200.000 L 0.000 400.000 200.000 400.000 L 400.000 400.000 400.000 200.000 L 400.000 0.000 200.000 0.000 L 0.000 0.000 0.000 200.000 M357.212 20.576 C 368.780 22.790,377.033 31.118,379.433 43.000 C 380.277 47.174,380.285 353.275,379.442 357.200 C 378.816 360.112,378.635 360.680,377.557 363.096 C 377.141 364.028,376.800 364.905,376.800 365.045 C 376.800 366.440,370.885 372.946,367.600 375.165 C 364.074 377.546,362.795 378.059,357.000 379.412 C 353.406 380.251,46.303 380.280,42.400 379.442 C 31.183 377.033,23.524 369.335,20.426 357.354 C 19.723 354.635,19.865 44.862,20.571 42.000 C 23.378 30.614,31.594 22.790,43.200 20.449 C 46.546 19.774,353.670 19.899,357.212 20.576 " stroke="none" fill="#fbfbfb" fill-rule="evenodd"></path><path id="path3" d="M43.200 20.449 C 31.594 22.790,23.378 30.614,20.571 42.000 C 20.123 43.818,20.041 57.261,20.102 119.400 C 20.142 160.760,20.231 192.125,20.299 189.100 C 20.371 185.891,20.585 183.600,20.811 183.600 C 21.025 183.600,21.200 183.780,21.200 184.000 C 21.200 184.220,21.560 184.400,22.000 184.400 C 22.440 184.400,22.800 184.580,22.800 184.800 C 22.800 185.020,23.120 185.200,23.512 185.200 C 23.903 185.200,24.483 185.560,24.800 186.000 C 25.117 186.440,25.697 186.800,26.088 186.800 C 26.480 186.800,26.800 186.980,26.800 187.200 C 26.800 187.420,27.120 187.600,27.512 187.600 C 27.903 187.600,28.483 187.960,28.800 188.400 C 29.117 188.840,29.697 189.200,30.088 189.200 C 30.480 189.200,30.800 189.380,30.800 189.600 C 30.800 189.820,31.120 190.000,31.512 190.000 C 31.903 190.000,32.483 190.360,32.800 190.800 C 33.117 191.240,33.697 191.600,34.088 191.600 C 34.480 191.600,34.800 191.780,34.800 192.000 C 34.800 192.220,35.120 192.400,35.512 192.400 C 35.903 192.400,36.483 192.760,36.800 193.200 C 37.117 193.640,37.697 194.000,38.088 194.000 C 38.480 194.000,38.800 194.180,38.800 194.400 C 38.800 194.620,39.120 194.800,39.512 194.800 C 39.903 194.800,40.483 195.160,40.800 195.600 C 41.117 196.040,41.697 196.400,42.088 196.400 C 42.480 196.400,42.800 196.580,42.800 196.800 C 42.800 197.020,43.120 197.200,43.512 197.200 C 43.903 197.200,44.483 197.560,44.800 198.000 C 45.117 198.440,45.697 198.800,46.088 198.800 C 46.480 198.800,46.800 198.980,46.800 199.200 C 46.800 199.420,47.120 199.600,47.512 199.600 C 47.903 199.600,48.483 199.960,48.800 200.400 C 49.117 200.840,49.697 201.200,50.088 201.200 C 50.480 201.200,50.800 201.380,50.800 201.600 C 50.800 201.820,51.120 202.000,51.512 202.000 C 51.903 202.000,52.483 202.360,52.800 202.800 C 53.117 203.240,53.697 203.600,54.088 203.600 C 54.480 203.600,54.800 203.780,54.800 204.000 C 54.800 204.220,55.120 204.400,55.512 204.400 C 55.903 204.400,56.483 204.760,56.800 205.200 C 57.117 205.640,57.697 206.000,58.088 206.000 C 58.480 206.000,58.800 206.180,58.800 206.400 C 58.800 206.620,59.120 206.800,59.512 206.800 C 59.903 206.800,60.483 207.160,60.800 207.600 C 61.117 208.040,61.697 208.400,62.088 208.400 C 62.480 208.400,62.800 208.580,62.800 208.800 C 62.800 209.020,63.120 209.200,63.512 209.200 C 63.903 209.200,64.483 209.560,64.800 210.000 C 65.117 210.440,65.697 210.800,66.088 210.800 C 66.480 210.800,66.800 210.980,66.800 211.200 C 66.800 211.420,67.094 211.600,67.453 211.600 C 67.812 211.600,68.443 211.989,68.856 212.464 C 70.095 213.893,70.159 213.175,69.646 203.497 C 69.000 191.283,68.125 183.222,66.446 174.000 C 66.226 172.790,65.752 170.180,65.393 168.200 C 65.034 166.220,64.570 163.700,64.362 162.600 C 64.153 161.500,63.873 159.831,63.738 158.891 C 63.604 157.951,63.338 157.085,63.147 156.967 C 62.379 156.493,62.760 154.000,63.600 154.000 C 64.040 154.000,64.400 154.180,64.400 154.400 C 64.400 154.620,64.760 154.800,65.200 154.800 C 65.640 154.800,66.000 154.980,66.000 155.200 C 66.000 155.420,66.540 155.600,67.200 155.600 C 67.860 155.600,68.400 155.780,68.400 156.000 C 68.400 156.220,68.760 156.400,69.200 156.400 C 69.640 156.400,70.000 156.580,70.000 156.800 C 70.000 157.020,70.360 157.200,70.800 157.200 C 71.240 157.200,71.600 157.380,71.600 157.600 C 71.600 157.820,72.140 158.000,72.800 158.000 C 73.460 158.000,74.000 158.180,74.000 158.400 C 74.000 158.620,74.360 158.800,74.800 158.800 C 75.240 158.800,75.600 158.980,75.600 159.200 C 75.600 159.420,75.960 159.600,76.400 159.600 C 76.840 159.600,77.200 159.780,77.200 160.000 C 77.200 160.220,77.740 160.400,78.400 160.400 C 79.060 160.400,79.600 160.580,79.600 160.800 C 79.600 161.020,79.960 161.200,80.400 161.200 C 80.840 161.200,81.200 161.380,81.200 161.600 C 81.200 161.820,81.560 162.000,82.000 162.000 C 82.440 162.000,82.800 162.180,82.800 162.400 C 82.800 162.620,83.340 162.800,84.000 162.800 C 84.660 162.800,85.200 162.980,85.200 163.200 C 85.200 163.420,85.560 163.600,86.000 163.600 C 86.440 163.600,86.800 163.780,86.800 164.000 C 86.800 164.220,87.160 164.400,87.600 164.400 C 88.040 164.400,88.400 164.580,88.400 164.800 C 88.400 165.020,88.760 165.200,89.200 165.200 C 89.640 165.200,90.000 165.380,90.000 165.600 C 90.000 165.820,90.540 166.000,91.200 166.000 C 91.860 166.000,92.400 166.180,92.400 166.400 C 92.400 166.620,92.760 166.800,93.200 166.800 C 93.640 166.800,94.000 166.980,94.000 167.200 C 94.000 167.420,94.360 167.600,94.800 167.600 C 95.240 167.600,95.600 167.780,95.600 168.000 C 95.600 168.220,96.140 168.400,96.800 168.400 C 97.460 168.400,98.000 168.580,98.000 168.800 C 98.000 169.020,98.360 169.200,98.800 169.200 C 99.240 169.200,99.600 169.380,99.600 169.600 C 99.600 169.820,99.960 170.000,100.400 170.000 C 100.840 170.000,101.200 170.180,101.200 170.400 C 101.200 170.620,101.740 170.800,102.400 170.800 C 103.060 170.800,103.600 170.980,103.600 171.200 C 103.600 171.420,103.960 171.600,104.400 171.600 C 104.840 171.600,105.200 171.780,105.200 172.000 C 105.200 172.220,105.560 172.400,106.000 172.400 C 106.440 172.400,106.800 172.580,106.800 172.800 C 106.800 173.020,107.340 173.200,108.000 173.200 C 108.660 173.200,109.200 173.380,109.200 173.600 C 109.200 173.820,109.560 174.000,110.000 174.000 C 110.440 174.000,110.800 174.180,110.800 174.400 C 110.800 174.620,111.160 174.800,111.600 174.800 C 112.040 174.800,112.400 174.980,112.400 175.200 C 112.400 175.420,112.940 175.600,113.600 175.600 C 114.260 175.600,114.800 175.780,114.800 176.000 C 114.800 176.220,115.160 176.400,115.600 176.400 C 116.040 176.400,116.400 176.580,116.400 176.800 C 116.400 177.020,116.760 177.200,117.200 177.200 C 117.640 177.200,118.000 177.380,118.000 177.600 C 118.000 177.820,118.540 178.000,119.200 178.000 C 119.860 178.000,120.400 178.180,120.400 178.400 C 120.400 178.620,120.760 178.800,121.200 178.800 C 121.640 178.800,122.000 178.980,122.000 179.200 C 122.000 179.420,122.360 179.600,122.800 179.600 C 123.240 179.600,123.600 179.780,123.600 180.000 C 123.600 180.220,124.140 180.400,124.800 180.400 C 125.460 180.400,126.000 180.580,126.000 180.800 C 126.000 181.020,126.360 181.200,126.800 181.200 C 127.240 181.200,127.600 181.380,127.600 181.600 C 127.600 181.820,127.960 182.000,128.400 182.000 C 128.840 182.000,129.200 182.180,129.200 182.400 C 129.200 182.620,129.560 182.800,130.000 182.800 C 130.440 182.800,130.800 182.980,130.800 183.200 C 130.800 183.420,131.340 183.600,132.000 183.600 C 132.660 183.600,133.200 183.780,133.200 184.000 C 133.200 184.220,133.560 184.400,134.000 184.400 C 134.440 184.400,134.800 184.580,134.800 184.800 C 134.800 185.020,135.160 185.200,135.600 185.200 C 136.040 185.200,136.400 185.380,136.400 185.600 C 136.400 185.820,136.940 186.000,137.600 186.000 C 138.260 186.000,138.800 186.180,138.800 186.400 C 138.800 186.620,139.160 186.800,139.600 186.800 C 140.040 186.800,140.400 186.980,140.400 187.200 C 140.400 187.420,140.760 187.600,141.200 187.600 C 141.640 187.600,142.000 187.780,142.000 188.000 C 142.000 188.220,142.540 188.400,143.200 188.400 C 143.860 188.400,144.400 188.580,144.400 188.800 C 144.400 189.020,144.760 189.200,145.200 189.200 C 145.640 189.200,146.000 189.380,146.000 189.600 C 146.000 189.820,146.360 190.000,146.800 190.000 C 147.240 190.000,147.600 190.180,147.600 190.400 C 147.600 190.620,148.140 190.800,148.800 190.800 C 149.460 190.800,150.000 190.980,150.000 191.200 C 150.000 191.420,150.360 191.600,150.800 191.600 C 151.240 191.600,151.600 191.780,151.600 192.000 C 151.600 192.220,151.960 192.400,152.400 192.400 C 152.840 192.400,153.200 192.580,153.200 192.800 C 153.200 193.020,153.740 193.200,154.400 193.200 C 155.060 193.200,155.600 193.380,155.600 193.600 C 155.600 193.820,155.960 194.000,156.400 194.000 C 156.840 194.000,157.200 194.180,157.200 194.400 C 157.200 194.620,157.560 194.800,158.000 194.800 C 158.440 194.800,158.800 194.980,158.800 195.200 C 158.800 195.420,159.340 195.600,160.000 195.600 C 160.660 195.600,161.200 195.780,161.200 196.000 C 161.200 196.220,161.560 196.400,162.000 196.400 C 162.440 196.400,162.800 196.580,162.800 196.800 C 162.800 197.020,163.160 197.200,163.600 197.200 C 164.040 197.200,164.400 197.380,164.400 197.600 C 164.400 197.820,164.940 198.000,165.600 198.000 C 166.260 198.000,166.800 198.180,166.800 198.400 C 166.800 198.620,167.160 198.800,167.600 198.800 C 168.040 198.800,168.400 198.980,168.400 199.200 C 168.400 199.420,168.760 199.600,169.200 199.600 C 169.640 199.600,170.000 199.780,170.000 200.000 C 170.000 200.220,170.540 200.400,171.200 200.400 C 171.860 200.400,172.400 200.580,172.400 200.800 C 172.400 201.020,172.760 201.200,173.200 201.200 C 173.640 201.200,174.000 201.380,174.000 201.600 C 174.000 201.820,174.360 202.000,174.800 202.000 C 175.240 202.000,175.600 202.180,175.600 202.400 C 175.600 202.620,175.960 202.800,176.400 202.800 C 176.840 202.800,177.200 202.980,177.200 203.200 C 177.200 203.420,177.560 203.600,178.000 203.600 C 178.444 203.600,178.800 203.333,178.800 203.000 C 178.800 202.670,178.980 202.400,179.200 202.400 C 179.420 202.400,179.600 201.871,179.600 201.224 C 179.600 200.577,179.759 199.949,179.954 199.829 C 180.149 199.708,180.397 199.113,180.506 198.505 C 180.615 197.897,181.200 195.330,181.806 192.800 C 183.121 187.307,183.460 185.589,184.821 177.500 C 186.433 167.918,188.400 145.905,188.400 137.443 C 188.400 135.990,188.498 134.800,188.618 134.800 C 189.026 134.800,190.800 136.762,190.800 137.213 C 190.800 137.460,191.520 138.354,192.400 139.200 C 193.280 140.046,194.000 140.949,194.000 141.208 C 194.000 141.467,194.540 142.183,195.200 142.800 C 195.860 143.417,196.400 144.137,196.400 144.400 C 196.400 144.663,196.940 145.383,197.600 146.000 C 198.260 146.617,198.800 147.333,198.800 147.592 C 198.800 147.851,199.520 148.754,200.400 149.600 C 201.280 150.446,202.000 151.349,202.000 151.608 C 202.000 151.867,202.540 152.583,203.200 153.200 C 203.860 153.817,204.400 154.533,204.400 154.792 C 204.400 155.051,205.120 155.954,206.000 156.800 C 206.880 157.646,207.600 158.549,207.600 158.808 C 207.600 159.067,208.140 159.783,208.800 160.400 C 209.460 161.017,210.000 161.737,210.000 162.000 C 210.000 162.263,210.540 162.983,211.200 163.600 C 211.860 164.217,212.400 164.933,212.400 165.192 C 212.400 165.451,213.120 166.354,214.000 167.200 C 214.880 168.046,215.600 168.949,215.600 169.208 C 215.600 169.467,216.140 170.183,216.800 170.800 C 217.460 171.417,218.000 172.137,218.000 172.400 C 218.000 172.663,218.540 173.383,219.200 174.000 C 219.860 174.617,220.400 175.333,220.400 175.592 C 220.400 175.851,221.120 176.754,222.000 177.600 C 222.880 178.446,223.600 179.349,223.600 179.608 C 223.600 179.867,224.140 180.583,224.800 181.200 C 225.460 181.817,226.000 182.537,226.000 182.800 C 226.000 183.063,226.540 183.783,227.200 184.400 C 227.860 185.017,228.400 185.733,228.400 185.992 C 228.400 186.251,229.120 187.154,230.000 188.000 C 230.880 188.846,231.600 189.749,231.600 190.008 C 231.600 190.267,232.140 190.983,232.800 191.600 C 233.460 192.217,234.000 192.933,234.000 193.192 C 234.000 193.451,234.720 194.354,235.600 195.200 C 236.480 196.046,237.200 196.949,237.200 197.208 C 237.200 197.467,237.740 198.183,238.400 198.800 C 239.060 199.417,239.600 200.137,239.600 200.400 C 239.600 200.663,240.140 201.383,240.800 202.000 C 241.460 202.617,242.000 203.333,242.000 203.592 C 242.000 203.851,242.720 204.754,243.600 205.600 C 244.480 206.446,245.200 207.349,245.200 207.608 C 245.200 207.867,245.740 208.583,246.400 209.200 C 247.060 209.817,247.600 210.537,247.600 210.800 C 247.600 211.063,248.140 211.783,248.800 212.400 C 249.460 213.017,250.000 213.733,250.000 213.992 C 250.000 214.251,250.720 215.154,251.600 216.000 C 252.480 216.846,253.200 217.749,253.200 218.008 C 253.200 218.267,253.740 218.983,254.400 219.600 C 255.060 220.217,255.600 220.937,255.600 221.200 C 255.600 221.463,256.140 222.183,256.800 222.800 C 257.460 223.417,258.000 224.133,258.000 224.392 C 258.000 224.651,258.720 225.554,259.600 226.400 C 260.480 227.246,261.200 228.149,261.200 228.408 C 261.200 228.667,261.740 229.383,262.400 230.000 C 263.060 230.617,263.600 231.333,263.600 231.592 C 263.600 231.851,264.320 232.754,265.200 233.600 C 266.080 234.446,266.800 235.349,266.800 235.608 C 266.800 235.867,267.340 236.583,268.000 237.200 C 268.660 237.817,269.200 238.537,269.200 238.800 C 269.200 239.063,269.740 239.783,270.400 240.400 C 271.060 241.017,271.600 241.733,271.600 241.992 C 271.600 242.251,272.320 243.154,273.200 244.000 C 274.080 244.846,274.800 245.749,274.800 246.008 C 274.800 246.267,275.340 246.983,276.000 247.600 C 276.660 248.217,277.200 248.937,277.200 249.200 C 277.200 249.463,277.740 250.183,278.400 250.800 C 279.060 251.417,279.600 252.133,279.600 252.392 C 279.600 252.651,280.320 253.554,281.200 254.400 C 282.080 255.246,282.800 256.149,282.800 256.408 C 282.800 256.667,283.340 257.383,284.000 258.000 C 284.660 258.617,285.200 259.337,285.200 259.600 C 285.200 259.863,285.740 260.583,286.400 261.200 C 287.060 261.817,287.600 262.533,287.600 262.792 C 287.600 263.051,288.320 263.954,289.200 264.800 C 290.080 265.646,290.800 266.621,290.800 266.969 C 290.800 267.316,290.980 267.600,291.200 267.600 C 291.420 267.600,291.600 267.330,291.600 267.000 C 291.600 266.670,291.780 266.400,292.000 266.400 C 292.220 266.400,292.400 266.212,292.400 265.983 C 292.400 265.754,292.729 265.213,293.131 264.782 C 295.240 262.519,305.454 243.609,309.218 235.000 C 309.411 234.560,310.385 232.354,311.384 230.097 C 312.383 227.841,313.200 225.904,313.200 225.793 C 313.200 225.609,314.188 223.302,315.340 220.800 C 316.396 218.505,316.565 218.554,320.189 222.177 C 322.065 224.053,323.600 225.777,323.600 226.007 C 323.600 226.237,325.580 228.394,328.000 230.800 C 330.420 233.206,332.400 235.366,332.400 235.600 C 332.400 235.834,334.380 237.994,336.800 240.400 C 339.220 242.806,341.200 244.966,341.200 245.200 C 341.200 245.434,343.180 247.594,345.600 250.000 C 348.020 252.406,350.000 254.566,350.000 254.800 C 350.000 255.034,351.980 257.194,354.400 259.600 C 356.820 262.006,358.800 264.166,358.800 264.400 C 358.800 264.634,360.780 266.794,363.200 269.200 C 365.620 271.606,367.600 273.766,367.600 274.000 C 367.600 274.234,369.580 276.394,372.000 278.800 C 374.420 281.206,376.400 283.374,376.400 283.619 C 376.400 283.863,377.117 284.751,377.993 285.593 L 379.586 287.124 379.700 297.262 C 379.763 302.838,379.856 248.540,379.907 176.600 C 380.003 40.280,380.040 43.926,378.490 39.000 C 375.606 29.838,367.093 22.467,357.212 20.576 C 353.670 19.899,46.546 19.774,43.200 20.449 " stroke="none" fill="#13c9b6" fill-rule="evenodd"></path><path id="path4" d="M188.400 137.443 C 188.400 145.871,186.424 168.019,184.835 177.400 C 183.368 186.061,183.130 187.269,181.806 192.800 C 181.200 195.330,180.615 197.897,180.506 198.505 C 180.397 199.113,180.149 199.708,179.954 199.829 C 179.759 199.949,179.600 200.577,179.600 201.224 C 179.600 201.871,179.420 202.400,179.200 202.400 C 178.980 202.400,178.800 202.670,178.800 203.000 C 178.800 203.333,178.444 203.600,178.000 203.600 C 177.560 203.600,177.200 203.420,177.200 203.200 C 177.200 202.980,176.840 202.800,176.400 202.800 C 175.960 202.800,175.600 202.620,175.600 202.400 C 175.600 202.180,175.240 202.000,174.800 202.000 C 174.360 202.000,174.000 201.820,174.000 201.600 C 174.000 201.380,173.640 201.200,173.200 201.200 C 172.760 201.200,172.400 201.020,172.400 200.800 C 172.400 200.580,171.860 200.400,171.200 200.400 C 170.540 200.400,170.000 200.220,170.000 200.000 C 170.000 199.780,169.640 199.600,169.200 199.600 C 168.760 199.600,168.400 199.420,168.400 199.200 C 168.400 198.980,168.040 198.800,167.600 198.800 C 167.160 198.800,166.800 198.620,166.800 198.400 C 166.800 198.180,166.260 198.000,165.600 198.000 C 164.940 198.000,164.400 197.820,164.400 197.600 C 164.400 197.380,164.040 197.200,163.600 197.200 C 163.160 197.200,162.800 197.020,162.800 196.800 C 162.800 196.580,162.440 196.400,162.000 196.400 C 161.560 196.400,161.200 196.220,161.200 196.000 C 161.200 195.780,160.660 195.600,160.000 195.600 C 159.340 195.600,158.800 195.420,158.800 195.200 C 158.800 194.980,158.440 194.800,158.000 194.800 C 157.560 194.800,157.200 194.620,157.200 194.400 C 157.200 194.180,156.840 194.000,156.400 194.000 C 155.960 194.000,155.600 193.820,155.600 193.600 C 155.600 193.380,155.060 193.200,154.400 193.200 C 153.740 193.200,153.200 193.020,153.200 192.800 C 153.200 192.580,152.840 192.400,152.400 192.400 C 151.960 192.400,151.600 192.220,151.600 192.000 C 151.600 191.780,151.240 191.600,150.800 191.600 C 150.360 191.600,150.000 191.420,150.000 191.200 C 150.000 190.980,149.460 190.800,148.800 190.800 C 148.140 190.800,147.600 190.620,147.600 190.400 C 147.600 190.180,147.240 190.000,146.800 190.000 C 146.360 190.000,146.000 189.820,146.000 189.600 C 146.000 189.380,145.640 189.200,145.200 189.200 C 144.760 189.200,144.400 189.020,144.400 188.800 C 144.400 188.580,143.860 188.400,143.200 188.400 C 142.540 188.400,142.000 188.220,142.000 188.000 C 142.000 187.780,141.640 187.600,141.200 187.600 C 140.760 187.600,140.400 187.420,140.400 187.200 C 140.400 186.980,140.040 186.800,139.600 186.800 C 139.160 186.800,138.800 186.620,138.800 186.400 C 138.800 186.180,138.260 186.000,137.600 186.000 C 136.940 186.000,136.400 185.820,136.400 185.600 C 136.400 185.380,136.040 185.200,135.600 185.200 C 135.160 185.200,134.800 185.020,134.800 184.800 C 134.800 184.580,134.440 184.400,134.000 184.400 C 133.560 184.400,133.200 184.220,133.200 184.000 C 133.200 183.780,132.660 183.600,132.000 183.600 C 131.340 183.600,130.800 183.420,130.800 183.200 C 130.800 182.980,130.440 182.800,130.000 182.800 C 129.560 182.800,129.200 182.620,129.200 182.400 C 129.200 182.180,128.840 182.000,128.400 182.000 C 127.960 182.000,127.600 181.820,127.600 181.600 C 127.600 181.380,127.240 181.200,126.800 181.200 C 126.360 181.200,126.000 181.020,126.000 180.800 C 126.000 180.580,125.460 180.400,124.800 180.400 C 124.140 180.400,123.600 180.220,123.600 180.000 C 123.600 179.780,123.240 179.600,122.800 179.600 C 122.360 179.600,122.000 179.420,122.000 179.200 C 122.000 178.980,121.640 178.800,121.200 178.800 C 120.760 178.800,120.400 178.620,120.400 178.400 C 120.400 178.180,119.860 178.000,119.200 178.000 C 118.540 178.000,118.000 177.820,118.000 177.600 C 118.000 177.380,117.640 177.200,117.200 177.200 C 116.760 177.200,116.400 177.020,116.400 176.800 C 116.400 176.580,116.040 176.400,115.600 176.400 C 115.160 176.400,114.800 176.220,114.800 176.000 C 114.800 175.780,114.260 175.600,113.600 175.600 C 112.940 175.600,112.400 175.420,112.400 175.200 C 112.400 174.980,112.040 174.800,111.600 174.800 C 111.160 174.800,110.800 174.620,110.800 174.400 C 110.800 174.180,110.440 174.000,110.000 174.000 C 109.560 174.000,109.200 173.820,109.200 173.600 C 109.200 173.380,108.660 173.200,108.000 173.200 C 107.340 173.200,106.800 173.020,106.800 172.800 C 106.800 172.580,106.440 172.400,106.000 172.400 C 105.560 172.400,105.200 172.220,105.200 172.000 C 105.200 171.780,104.840 171.600,104.400 171.600 C 103.960 171.600,103.600 171.420,103.600 171.200 C 103.600 170.980,103.060 170.800,102.400 170.800 C 101.740 170.800,101.200 170.620,101.200 170.400 C 101.200 170.180,100.840 170.000,100.400 170.000 C 99.960 170.000,99.600 169.820,99.600 169.600 C 99.600 169.380,99.240 169.200,98.800 169.200 C 98.360 169.200,98.000 169.020,98.000 168.800 C 98.000 168.580,97.460 168.400,96.800 168.400 C 96.140 168.400,95.600 168.220,95.600 168.000 C 95.600 167.780,95.240 167.600,94.800 167.600 C 94.360 167.600,94.000 167.420,94.000 167.200 C 94.000 166.980,93.640 166.800,93.200 166.800 C 92.760 166.800,92.400 166.620,92.400 166.400 C 92.400 166.180,91.860 166.000,91.200 166.000 C 90.540 166.000,90.000 165.820,90.000 165.600 C 90.000 165.380,89.640 165.200,89.200 165.200 C 88.760 165.200,88.400 165.020,88.400 164.800 C 88.400 164.580,88.040 164.400,87.600 164.400 C 87.160 164.400,86.800 164.220,86.800 164.000 C 86.800 163.780,86.440 163.600,86.000 163.600 C 85.560 163.600,85.200 163.420,85.200 163.200 C 85.200 162.980,84.660 162.800,84.000 162.800 C 83.340 162.800,82.800 162.620,82.800 162.400 C 82.800 162.180,82.440 162.000,82.000 162.000 C 81.560 162.000,81.200 161.820,81.200 161.600 C 81.200 161.380,80.840 161.200,80.400 161.200 C 79.960 161.200,79.600 161.020,79.600 160.800 C 79.600 160.580,79.060 160.400,78.400 160.400 C 77.740 160.400,77.200 160.220,77.200 160.000 C 77.200 159.780,76.840 159.600,76.400 159.600 C 75.960 159.600,75.600 159.420,75.600 159.200 C 75.600 158.980,75.240 158.800,74.800 158.800 C 74.360 158.800,74.000 158.620,74.000 158.400 C 74.000 158.180,73.460 158.000,72.800 158.000 C 72.140 158.000,71.600 157.820,71.600 157.600 C 71.600 157.380,71.240 157.200,70.800 157.200 C 70.360 157.200,70.000 157.020,70.000 156.800 C 70.000 156.580,69.640 156.400,69.200 156.400 C 68.760 156.400,68.400 156.220,68.400 156.000 C 68.400 155.780,67.860 155.600,67.200 155.600 C 66.540 155.600,66.000 155.420,66.000 155.200 C 66.000 154.980,65.640 154.800,65.200 154.800 C 64.760 154.800,64.400 154.620,64.400 154.400 C 64.400 154.180,64.040 154.000,63.600 154.000 C 62.760 154.000,62.379 156.493,63.147 156.967 C 63.338 157.085,63.604 157.951,63.738 158.891 C 63.873 159.831,64.153 161.500,64.362 162.600 C 64.570 163.700,65.034 166.220,65.393 168.200 C 65.752 170.180,66.226 172.790,66.446 174.000 C 68.125 183.222,69.000 191.283,69.646 203.497 C 70.159 213.175,70.095 213.893,68.856 212.464 C 68.443 211.989,67.812 211.600,67.453 211.600 C 67.094 211.600,66.800 211.420,66.800 211.200 C 66.800 210.980,66.480 210.800,66.088 210.800 C 65.697 210.800,65.117 210.440,64.800 210.000 C 64.483 209.560,63.903 209.200,63.512 209.200 C 63.120 209.200,62.800 209.020,62.800 208.800 C 62.800 208.580,62.480 208.400,62.088 208.400 C 61.697 208.400,61.117 208.040,60.800 207.600 C 60.483 207.160,59.903 206.800,59.512 206.800 C 59.120 206.800,58.800 206.620,58.800 206.400 C 58.800 206.180,58.480 206.000,58.088 206.000 C 57.697 206.000,57.117 205.640,56.800 205.200 C 56.483 204.760,55.903 204.400,55.512 204.400 C 55.120 204.400,54.800 204.220,54.800 204.000 C 54.800 203.780,54.480 203.600,54.088 203.600 C 53.697 203.600,53.117 203.240,52.800 202.800 C 52.483 202.360,51.903 202.000,51.512 202.000 C 51.120 202.000,50.800 201.820,50.800 201.600 C 50.800 201.380,50.480 201.200,50.088 201.200 C 49.697 201.200,49.117 200.840,48.800 200.400 C 48.483 199.960,47.903 199.600,47.512 199.600 C 47.120 199.600,46.800 199.420,46.800 199.200 C 46.800 198.980,46.480 198.800,46.088 198.800 C 45.697 198.800,45.117 198.440,44.800 198.000 C 44.483 197.560,43.903 197.200,43.512 197.200 C 43.120 197.200,42.800 197.020,42.800 196.800 C 42.800 196.580,42.480 196.400,42.088 196.400 C 41.697 196.400,41.117 196.040,40.800 195.600 C 40.483 195.160,39.903 194.800,39.512 194.800 C 39.120 194.800,38.800 194.620,38.800 194.400 C 38.800 194.180,38.480 194.000,38.088 194.000 C 37.697 194.000,37.117 193.640,36.800 193.200 C 36.483 192.760,35.903 192.400,35.512 192.400 C 35.120 192.400,34.800 192.220,34.800 192.000 C 34.800 191.780,34.480 191.600,34.088 191.600 C 33.697 191.600,33.117 191.240,32.800 190.800 C 32.483 190.360,31.903 190.000,31.512 190.000 C 31.120 190.000,30.800 189.820,30.800 189.600 C 30.800 189.380,30.480 189.200,30.088 189.200 C 29.697 189.200,29.117 188.840,28.800 188.400 C 28.483 187.960,27.903 187.600,27.512 187.600 C 27.120 187.600,26.800 187.420,26.800 187.200 C 26.800 186.980,26.480 186.800,26.088 186.800 C 25.697 186.800,25.117 186.440,24.800 186.000 C 24.483 185.560,23.903 185.200,23.512 185.200 C 23.120 185.200,22.800 185.020,22.800 184.800 C 22.800 184.580,22.455 184.400,22.033 184.400 C 21.612 184.400,21.186 184.175,21.088 183.900 C 20.336 181.795,20.198 189.568,20.179 234.933 C 20.167 262.910,20.214 277.385,20.283 267.100 C 20.351 256.815,20.546 248.400,20.716 248.400 C 20.885 248.400,21.283 248.760,21.600 249.200 C 21.917 249.640,22.497 250.000,22.888 250.000 C 23.280 250.000,23.600 250.180,23.600 250.400 C 23.600 250.620,23.920 250.800,24.312 250.800 C 24.703 250.800,25.283 251.160,25.600 251.600 C 25.917 252.040,26.497 252.400,26.888 252.400 C 27.280 252.400,27.600 252.580,27.600 252.800 C 27.600 253.020,27.920 253.200,28.312 253.200 C 28.703 253.200,29.283 253.560,29.600 254.000 C 29.917 254.440,30.497 254.800,30.888 254.800 C 31.280 254.800,31.600 254.980,31.600 255.200 C 31.600 255.420,31.920 255.600,32.312 255.600 C 32.703 255.600,33.283 255.960,33.600 256.400 C 33.917 256.840,34.497 257.200,34.888 257.200 C 35.280 257.200,35.600 257.380,35.600 257.600 C 35.600 257.820,35.920 258.000,36.312 258.000 C 36.703 258.000,37.283 258.360,37.600 258.800 C 37.917 259.240,38.497 259.600,38.888 259.600 C 39.280 259.600,39.600 259.780,39.600 260.000 C 39.600 260.220,39.920 260.400,40.312 260.400 C 40.703 260.400,41.283 260.760,41.600 261.200 C 41.917 261.640,42.497 262.000,42.888 262.000 C 43.280 262.000,43.600 262.180,43.600 262.400 C 43.600 262.620,43.920 262.800,44.312 262.800 C 44.703 262.800,45.283 263.160,45.600 263.600 C 45.917 264.040,46.497 264.400,46.888 264.400 C 47.280 264.400,47.600 264.580,47.600 264.800 C 47.600 265.020,47.920 265.200,48.312 265.200 C 48.703 265.200,49.283 265.560,49.600 266.000 C 49.917 266.440,50.497 266.800,50.888 266.800 C 51.280 266.800,51.600 266.980,51.600 267.200 C 51.600 267.420,51.920 267.600,52.312 267.600 C 52.703 267.600,53.283 267.960,53.600 268.400 C 53.917 268.840,54.497 269.200,54.888 269.200 C 55.280 269.200,55.600 269.380,55.600 269.600 C 55.600 269.820,55.920 270.000,56.312 270.000 C 56.703 270.000,57.283 270.360,57.600 270.800 C 57.917 271.240,58.497 271.600,58.888 271.600 C 59.280 271.600,59.600 271.780,59.600 272.000 C 59.600 272.220,59.920 272.400,60.312 272.400 C 60.703 272.400,61.283 272.760,61.600 273.200 C 61.917 273.640,62.497 274.000,62.888 274.000 C 63.280 274.000,63.600 274.180,63.600 274.400 C 63.600 275.517,65.126 274.717,65.317 273.500 C 65.429 272.785,65.817 270.940,66.179 269.400 C 66.541 267.860,67.009 265.655,67.219 264.500 C 67.428 263.345,67.792 261.365,68.027 260.100 C 68.813 255.858,70.181 244.815,71.049 235.700 L 71.744 228.400 72.872 228.400 C 73.492 228.400,74.000 228.580,74.000 228.800 C 74.000 229.020,74.360 229.200,74.800 229.200 C 75.240 229.200,75.600 229.380,75.600 229.600 C 75.600 229.820,75.960 230.000,76.400 230.000 C 76.840 230.000,77.200 230.180,77.200 230.400 C 77.200 230.620,77.740 230.800,78.400 230.800 C 79.060 230.800,79.600 230.980,79.600 231.200 C 79.600 231.420,79.960 231.600,80.400 231.600 C 80.840 231.600,81.200 231.780,81.200 232.000 C 81.200 232.220,81.560 232.400,82.000 232.400 C 82.440 232.400,82.800 232.580,82.800 232.800 C 82.800 233.020,83.340 233.200,84.000 233.200 C 84.660 233.200,85.200 233.380,85.200 233.600 C 85.200 233.820,85.560 234.000,86.000 234.000 C 86.440 234.000,86.800 234.180,86.800 234.400 C 86.800 234.620,87.160 234.800,87.600 234.800 C 88.040 234.800,88.400 234.980,88.400 235.200 C 88.400 235.420,88.940 235.600,89.600 235.600 C 90.260 235.600,90.800 235.780,90.800 236.000 C 90.800 236.220,91.160 236.400,91.600 236.400 C 92.040 236.400,92.400 236.580,92.400 236.800 C 92.400 237.020,92.760 237.200,93.200 237.200 C 93.640 237.200,94.000 237.380,94.000 237.600 C 94.000 237.820,94.540 238.000,95.200 238.000 C 95.860 238.000,96.400 238.180,96.400 238.400 C 96.400 238.620,96.760 238.800,97.200 238.800 C 97.640 238.800,98.000 238.980,98.000 239.200 C 98.000 239.420,98.360 239.600,98.800 239.600 C 99.240 239.600,99.600 239.780,99.600 240.000 C 99.600 240.220,99.960 240.400,100.400 240.400 C 100.840 240.400,101.200 240.580,101.200 240.800 C 101.200 241.020,101.740 241.200,102.400 241.200 C 103.060 241.200,103.600 241.380,103.600 241.600 C 103.600 241.820,103.960 242.000,104.400 242.000 C 104.840 242.000,105.200 242.180,105.200 242.400 C 105.200 242.620,105.560 242.800,106.000 242.800 C 106.440 242.800,106.800 242.980,106.800 243.200 C 106.800 243.420,107.340 243.600,108.000 243.600 C 108.660 243.600,109.200 243.780,109.200 244.000 C 109.200 244.220,109.560 244.400,110.000 244.400 C 110.440 244.400,110.800 244.580,110.800 244.800 C 110.800 245.020,111.160 245.200,111.600 245.200 C 112.040 245.200,112.400 245.380,112.400 245.600 C 112.400 245.820,112.940 246.000,113.600 246.000 C 114.260 246.000,114.800 246.180,114.800 246.400 C 114.800 246.620,115.160 246.800,115.600 246.800 C 116.040 246.800,116.400 246.980,116.400 247.200 C 116.400 247.420,116.760 247.600,117.200 247.600 C 117.640 247.600,118.000 247.780,118.000 248.000 C 118.000 248.220,118.540 248.400,119.200 248.400 C 119.860 248.400,120.400 248.580,120.400 248.800 C 120.400 249.020,120.760 249.200,121.200 249.200 C 121.640 249.200,122.000 249.380,122.000 249.600 C 122.000 249.820,122.360 250.000,122.800 250.000 C 123.240 250.000,123.600 250.180,123.600 250.400 C 123.600 250.620,124.140 250.800,124.800 250.800 C 125.460 250.800,126.000 250.980,126.000 251.200 C 126.000 251.420,126.360 251.600,126.800 251.600 C 127.240 251.600,127.600 251.780,127.600 252.000 C 127.600 252.220,127.960 252.400,128.400 252.400 C 128.840 252.400,129.200 252.580,129.200 252.800 C 129.200 253.020,129.740 253.200,130.400 253.200 C 131.060 253.200,131.600 253.380,131.600 253.600 C 131.600 253.820,131.960 254.000,132.400 254.000 C 132.840 254.000,133.200 254.180,133.200 254.400 C 133.200 254.620,133.560 254.800,134.000 254.800 C 134.440 254.800,134.800 254.980,134.800 255.200 C 134.800 255.420,135.340 255.600,136.000 255.600 C 136.660 255.600,137.200 255.780,137.200 256.000 C 137.200 256.220,137.560 256.400,138.000 256.400 C 138.440 256.400,138.800 256.580,138.800 256.800 C 138.800 257.020,139.160 257.200,139.600 257.200 C 140.040 257.200,140.400 257.380,140.400 257.600 C 140.400 257.820,140.760 258.000,141.200 258.000 C 141.640 258.000,142.000 258.180,142.000 258.400 C 142.000 258.620,142.540 258.800,143.200 258.800 C 143.860 258.800,144.400 258.980,144.400 259.200 C 144.400 259.420,144.760 259.600,145.200 259.600 C 145.640 259.600,146.000 259.780,146.000 260.000 C 146.000 260.220,146.360 260.400,146.800 260.400 C 147.240 260.400,147.600 260.580,147.600 260.800 C 147.600 261.020,148.140 261.200,148.800 261.200 C 149.460 261.200,150.000 261.380,150.000 261.600 C 150.000 261.820,150.360 262.000,150.800 262.000 C 151.240 262.000,151.600 262.180,151.600 262.400 C 151.600 262.620,151.960 262.800,152.400 262.800 C 152.840 262.800,153.200 262.980,153.200 263.200 C 153.200 263.420,153.820 263.600,154.577 263.600 C 155.884 263.600,156.058 263.423,158.014 260.100 C 160.235 256.328,166.884 242.980,168.574 238.902 C 170.186 235.009,171.737 231.813,172.084 231.667 C 172.258 231.593,172.400 231.008,172.400 230.367 C 172.400 229.725,172.503 229.200,172.629 229.200 C 173.034 229.200,174.000 230.329,174.000 230.803 C 174.000 231.056,174.720 231.954,175.600 232.800 C 176.480 233.646,177.200 234.549,177.200 234.808 C 177.200 235.067,177.740 235.783,178.400 236.400 C 179.060 237.017,179.600 237.737,179.600 238.000 C 179.600 238.263,180.140 238.983,180.800 239.600 C 181.460 240.217,182.000 240.933,182.000 241.192 C 182.000 241.451,182.720 242.354,183.600 243.200 C 184.480 244.046,185.200 244.949,185.200 245.208 C 185.200 245.467,185.740 246.183,186.400 246.800 C 187.060 247.417,187.600 248.137,187.600 248.400 C 187.600 248.663,188.140 249.383,188.800 250.000 C 189.460 250.617,190.000 251.333,190.000 251.592 C 190.000 251.851,190.720 252.754,191.600 253.600 C 192.480 254.446,193.200 255.349,193.200 255.608 C 193.200 255.867,193.740 256.583,194.400 257.200 C 195.060 257.817,195.600 258.537,195.600 258.800 C 195.600 259.063,196.140 259.783,196.800 260.400 C 197.460 261.017,198.000 261.733,198.000 261.992 C 198.000 262.251,198.720 263.154,199.600 264.000 C 200.480 264.846,201.200 265.749,201.200 266.008 C 201.200 266.267,201.740 266.983,202.400 267.600 C 203.060 268.217,203.600 268.933,203.600 269.192 C 203.600 269.451,204.320 270.354,205.200 271.200 C 206.080 272.046,206.800 272.949,206.800 273.208 C 206.800 273.467,207.340 274.183,208.000 274.800 C 208.660 275.417,209.200 276.137,209.200 276.400 C 209.200 276.663,209.740 277.383,210.400 278.000 C 211.060 278.617,211.600 279.333,211.600 279.592 C 211.600 279.851,212.320 280.754,213.200 281.600 C 214.080 282.446,214.800 283.349,214.800 283.608 C 214.800 283.867,215.340 284.583,216.000 285.200 C 216.660 285.817,217.200 286.537,217.200 286.800 C 217.200 287.063,217.740 287.783,218.400 288.400 C 219.060 289.017,219.600 289.733,219.600 289.992 C 219.600 290.251,220.320 291.154,221.200 292.000 C 222.080 292.846,222.800 293.749,222.800 294.008 C 222.800 294.267,223.340 294.983,224.000 295.600 C 224.660 296.217,225.200 296.937,225.200 297.200 C 225.200 297.463,225.740 298.183,226.400 298.800 C 227.060 299.417,227.600 300.133,227.600 300.392 C 227.600 300.651,228.320 301.554,229.200 302.400 C 230.080 303.246,230.800 304.149,230.800 304.408 C 230.800 304.667,231.340 305.383,232.000 306.000 C 232.660 306.617,233.200 307.333,233.200 307.592 C 233.200 307.851,233.920 308.754,234.800 309.600 C 235.680 310.446,236.400 311.349,236.400 311.608 C 236.400 311.867,236.940 312.583,237.600 313.200 C 238.260 313.817,238.800 314.537,238.800 314.800 C 238.800 315.063,239.340 315.783,240.000 316.400 C 240.660 317.017,241.200 317.733,241.200 317.992 C 241.200 318.251,241.920 319.154,242.800 320.000 C 243.680 320.846,244.400 321.744,244.400 321.997 C 244.400 323.282,245.543 323.644,246.658 322.712 C 252.968 317.439,261.931 308.479,269.195 300.181 C 271.497 297.552,273.880 294.903,274.491 294.297 C 275.101 293.690,275.600 293.092,275.600 292.968 C 275.600 292.844,275.865 292.478,276.189 292.153 C 276.787 291.556,282.000 296.089,282.000 297.205 C 282.000 297.436,283.980 299.594,286.400 302.000 C 288.820 304.406,290.800 306.566,290.800 306.800 C 290.800 307.034,292.780 309.194,295.200 311.600 C 297.620 314.006,299.600 316.166,299.600 316.400 C 299.600 316.634,301.580 318.794,304.000 321.200 C 306.420 323.606,308.400 325.766,308.400 326.000 C 308.400 326.234,310.380 328.394,312.800 330.800 C 315.220 333.206,317.200 335.366,317.200 335.600 C 317.200 335.834,319.180 337.994,321.600 340.400 C 324.020 342.806,326.000 344.966,326.000 345.200 C 326.000 345.434,327.980 347.594,330.400 350.000 C 332.820 352.406,334.800 354.566,334.800 354.800 C 334.800 355.034,336.780 357.194,339.200 359.600 C 341.620 362.006,343.600 364.166,343.600 364.400 C 343.600 364.634,345.580 366.794,348.000 369.200 C 350.420 371.606,352.400 373.772,352.400 374.013 C 352.400 374.255,353.300 375.329,354.400 376.400 C 356.799 378.737,356.812 378.800,354.880 378.800 C 354.044 378.800,353.181 378.979,352.963 379.197 C 352.709 379.451,342.365 379.633,324.383 379.700 L 296.200 379.805 325.400 379.889 C 355.342 379.974,354.988 379.988,360.806 378.489 C 364.075 377.647,368.567 374.907,371.546 371.939 C 373.219 370.272,376.800 365.573,376.800 365.045 C 376.800 364.905,377.139 364.028,377.553 363.096 C 380.184 357.169,380.158 357.638,379.879 320.534 L 379.629 287.165 378.014 285.614 C 377.127 284.761,376.400 283.863,376.400 283.619 C 376.400 283.374,374.420 281.206,372.000 278.800 C 369.580 276.394,367.600 274.234,367.600 274.000 C 367.600 273.766,365.620 271.606,363.200 269.200 C 360.780 266.794,358.800 264.634,358.800 264.400 C 358.800 264.166,356.820 262.006,354.400 259.600 C 351.980 257.194,350.000 255.034,350.000 254.800 C 350.000 254.566,348.020 252.406,345.600 250.000 C 343.180 247.594,341.200 245.434,341.200 245.200 C 341.200 244.966,339.220 242.806,336.800 240.400 C 334.380 237.994,332.400 235.834,332.400 235.600 C 332.400 235.366,330.420 233.206,328.000 230.800 C 325.580 228.394,323.600 226.237,323.600 226.007 C 323.600 225.777,322.065 224.053,320.189 222.177 C 316.565 218.554,316.396 218.505,315.340 220.800 C 314.188 223.302,313.200 225.609,313.200 225.793 C 313.200 225.904,312.383 227.841,311.384 230.097 C 310.385 232.354,309.411 234.560,309.218 235.000 C 305.454 243.609,295.240 262.519,293.131 264.782 C 292.729 265.213,292.400 265.754,292.400 265.983 C 292.400 266.212,292.220 266.400,292.000 266.400 C 291.780 266.400,291.600 266.670,291.600 267.000 C 291.600 267.330,291.420 267.600,291.200 267.600 C 290.980 267.600,290.800 267.316,290.800 266.969 C 290.800 266.621,290.080 265.646,289.200 264.800 C 288.320 263.954,287.600 263.051,287.600 262.792 C 287.600 262.533,287.060 261.817,286.400 261.200 C 285.740 260.583,285.200 259.863,285.200 259.600 C 285.200 259.337,284.660 258.617,284.000 258.000 C 283.340 257.383,282.800 256.667,282.800 256.408 C 282.800 256.149,282.080 255.246,281.200 254.400 C 280.320 253.554,279.600 252.651,279.600 252.392 C 279.600 252.133,279.060 251.417,278.400 250.800 C 277.740 250.183,277.200 249.463,277.200 249.200 C 277.200 248.937,276.660 248.217,276.000 247.600 C 275.340 246.983,274.800 246.267,274.800 246.008 C 274.800 245.749,274.080 244.846,273.200 244.000 C 272.320 243.154,271.600 242.251,271.600 241.992 C 271.600 241.733,271.060 241.017,270.400 240.400 C 269.740 239.783,269.200 239.063,269.200 238.800 C 269.200 238.537,268.660 237.817,268.000 237.200 C 267.340 236.583,266.800 235.867,266.800 235.608 C 266.800 235.349,266.080 234.446,265.200 233.600 C 264.320 232.754,263.600 231.851,263.600 231.592 C 263.600 231.333,263.060 230.617,262.400 230.000 C 261.740 229.383,261.200 228.667,261.200 228.408 C 261.200 228.149,260.480 227.246,259.600 226.400 C 258.720 225.554,258.000 224.651,258.000 224.392 C 258.000 224.133,257.460 223.417,256.800 222.800 C 256.140 222.183,255.600 221.463,255.600 221.200 C 255.600 220.937,255.060 220.217,254.400 219.600 C 253.740 218.983,253.200 218.267,253.200 218.008 C 253.200 217.749,252.480 216.846,251.600 216.000 C 250.720 215.154,250.000 214.251,250.000 213.992 C 250.000 213.733,249.460 213.017,248.800 212.400 C 248.140 211.783,247.600 211.063,247.600 210.800 C 247.600 210.537,247.060 209.817,246.400 209.200 C 245.740 208.583,245.200 207.867,245.200 207.608 C 245.200 207.349,244.480 206.446,243.600 205.600 C 242.720 204.754,242.000 203.851,242.000 203.592 C 242.000 203.333,241.460 202.617,240.800 202.000 C 240.140 201.383,239.600 200.663,239.600 200.400 C 239.600 200.137,239.060 199.417,238.400 198.800 C 237.740 198.183,237.200 197.467,237.200 197.208 C 237.200 196.949,236.480 196.046,235.600 195.200 C 234.720 194.354,234.000 193.451,234.000 193.192 C 234.000 192.933,233.460 192.217,232.800 191.600 C 232.140 190.983,231.600 190.267,231.600 190.008 C 231.600 189.749,230.880 188.846,230.000 188.000 C 229.120 187.154,228.400 186.251,228.400 185.992 C 228.400 185.733,227.860 185.017,227.200 184.400 C 226.540 183.783,226.000 183.063,226.000 182.800 C 226.000 182.537,225.460 181.817,224.800 181.200 C 224.140 180.583,223.600 179.867,223.600 179.608 C 223.600 179.349,222.880 178.446,222.000 177.600 C 221.120 176.754,220.400 175.851,220.400 175.592 C 220.400 175.333,219.860 174.617,219.200 174.000 C 218.540 173.383,218.000 172.663,218.000 172.400 C 218.000 172.137,217.460 171.417,216.800 170.800 C 216.140 170.183,215.600 169.467,215.600 169.208 C 215.600 168.949,214.880 168.046,214.000 167.200 C 213.120 166.354,212.400 165.451,212.400 165.192 C 212.400 164.933,211.860 164.217,211.200 163.600 C 210.540 162.983,210.000 162.263,210.000 162.000 C 210.000 161.737,209.460 161.017,208.800 160.400 C 208.140 159.783,207.600 159.067,207.600 158.808 C 207.600 158.549,206.880 157.646,206.000 156.800 C 205.120 155.954,204.400 155.051,204.400 154.792 C 204.400 154.533,203.860 153.817,203.200 153.200 C 202.540 152.583,202.000 151.867,202.000 151.608 C 202.000 151.349,201.280 150.446,200.400 149.600 C 199.520 148.754,198.800 147.851,198.800 147.592 C 198.800 147.333,198.260 146.617,197.600 146.000 C 196.940 145.383,196.400 144.663,196.400 144.400 C 196.400 144.137,195.860 143.417,195.200 142.800 C 194.540 142.183,194.000 141.467,194.000 141.208 C 194.000 140.949,193.280 140.046,192.400 139.200 C 191.520 138.354,190.800 137.460,190.800 137.213 C 190.800 136.762,189.026 134.800,188.618 134.800 C 188.498 134.800,188.400 135.990,188.400 137.443 " stroke="none" fill="#2698c5" fill-rule="evenodd"></path></g></svg>